<svg viewBox="0 0 330 200" xmlns="http://www.w3.org/2000/svg"><g><g><g><g><g><line x1="46.5" y1="177" x2="41.5" y2="177" style="visibility: inherit;" fill="rgb(0, 0, 0)" stroke="rgb(204, 204, 204)" stroke-width="1px"></line><line x1="46.5" y1="162.25" x2="41.5" y2="162.25" style="visibility: inherit;" fill="rgb(0, 0, 0)" stroke="rgb(204, 204, 204)" stroke-width="1px"></line><line x1="46.5" y1="147.5" x2="41.5" y2="147.5" style="visibility: inherit;" fill="rgb(0, 0, 0)" stroke="rgb(204, 204, 204)" stroke-width="1px"></line><line x1="46.5" y1="132.75" x2="41.5" y2="132.75" style="visibility: inherit;" fill="rgb(0, 0, 0)" stroke="rgb(204, 204, 204)" stroke-width="1px"></line><line x1="46.5" y1="117.99999999999997" x2="41.5" y2="117.99999999999997" style="visibility: inherit;" fill="rgb(0, 0, 0)" stroke="rgb(204, 204, 204)" stroke-width="1px"></line><line x1="46.5" y1="103.24999999999999" x2="41.5" y2="103.24999999999999" style="visibility: inherit;" fill="rgb(0, 0, 0)" stroke="rgb(204, 204, 204)" stroke-width="1px"></line><line x1="46.5" y1="88.5" x2="41.5" y2="88.5" style="visibility: inherit;" fill="rgb(0, 0, 0)" stroke="rgb(204, 204, 204)" stroke-width="1px"></line><line x1="46.5" y1="73.75" x2="41.5" y2="73.75" style="visibility: inherit;" fill="rgb(0, 0, 0)" stroke="rgb(204, 204, 204)" stroke-width="1px"></line><line x1="46.5" y1="58.999999999999986" x2="41.5" y2="58.999999999999986" style="visibility: inherit;" fill="rgb(0, 0, 0)" stroke="rgb(204, 204, 204)" stroke-width="1px"></line><line x1="46.5" y1="44.25" x2="41.5" y2="44.25" style="visibility: inherit;" fill="rgb(0, 0, 0)" stroke="rgb(204, 204, 204)" stroke-width="1px"></line><line x1="46.5" y1="29.499999999999993" x2="41.5" y2="29.499999999999993" style="visibility: inherit;" fill="rgb(0, 0, 0)" stroke="rgb(204, 204, 204)" stroke-width="1px"></line><line x1="46.5" y1="14.749999999999968" x2="41.5" y2="14.749999999999968" style="visibility: inherit;" fill="rgb(0, 0, 0)" stroke="rgb(204, 204, 204)" stroke-width="1px"></line><line x1="46.5" y1="0" x2="41.5" y2="0" style="visibility: inherit;" fill="rgb(0, 0, 0)" stroke="rgb(204, 204, 204)" stroke-width="1px"></line></g><g transform="translate(36.5, 0)"><text x="0" y="177" dx="0em" dy="0.3em" style="text-anchor: end; visibility: hidden; font-family: Roboto, sans-serif; font-size: 12px; font-weight: 200;" fill="rgb(50, 49, 63)" stroke="none" stroke-width="1px">0.06</text><text x="0" y="162.25" dx="0em" dy="0.3em" style="text-anchor: end; visibility: inherit; font-family: Roboto, sans-serif; font-size: 12px; font-weight: 200;" fill="rgb(50, 49, 63)" stroke="none" stroke-width="1px">0.08</text><text x="0" y="147.5" dx="0em" dy="0.3em" style="text-anchor: end; visibility: hidden; font-family: Roboto, sans-serif; font-size: 12px; font-weight: 200;" fill="rgb(50, 49, 63)" stroke="none" stroke-width="1px">0.1</text><text x="0" y="132.75" dx="0em" dy="0.3em" style="text-anchor: end; visibility: inherit; font-family: Roboto, sans-serif; font-size: 12px; font-weight: 200;" fill="rgb(50, 49, 63)" stroke="none" stroke-width="1px">0.12</text><text x="0" y="117.99999999999997" dx="0em" dy="0.3em" style="text-anchor: end; visibility: hidden; font-family: Roboto, sans-serif; font-size: 12px; font-weight: 200;" fill="rgb(50, 49, 63)" stroke="none" stroke-width="1px">0.14</text><text x="0" y="103.24999999999999" dx="0em" dy="0.3em" style="text-anchor: end; visibility: inherit; font-family: Roboto, sans-serif; font-size: 12px; font-weight: 200;" fill="rgb(50, 49, 63)" stroke="none" stroke-width="1px">0.16</text><text x="0" y="88.5" dx="0em" dy="0.3em" style="text-anchor: end; visibility: hidden; font-family: Roboto, sans-serif; font-size: 12px; font-weight: 200;" fill="rgb(50, 49, 63)" stroke="none" stroke-width="1px">0.18</text><text x="0" y="73.75" dx="0em" dy="0.3em" style="text-anchor: end; visibility: inherit; font-family: Roboto, sans-serif; font-size: 12px; font-weight: 200;" fill="rgb(50, 49, 63)" stroke="none" stroke-width="1px">0.2</text><text x="0" y="58.999999999999986" dx="0em" dy="0.3em" style="text-anchor: end; visibility: hidden; font-family: Roboto, sans-serif; font-size: 12px; font-weight: 200;" fill="rgb(50, 49, 63)" stroke="none" stroke-width="1px">0.22</text><text x="0" y="44.25" dx="0em" dy="0.3em" style="text-anchor: end; visibility: inherit; font-family: Roboto, sans-serif; font-size: 12px; font-weight: 200;" fill="rgb(50, 49, 63)" stroke="none" stroke-width="1px">0.24</text><text x="0" y="29.499999999999993" dx="0em" dy="0.3em" style="text-anchor: end; visibility: hidden; font-family: Roboto, sans-serif; font-size: 12px; font-weight: 200;" fill="rgb(50, 49, 63)" stroke="none" stroke-width="1px">0.26</text><text x="0" y="14.749999999999968" dx="0em" dy="0.3em" style="text-anchor: end; visibility: inherit; font-family: Roboto, sans-serif; font-size: 12px; font-weight: 200;" fill="rgb(50, 49, 63)" stroke="none" stroke-width="1px">0.28</text><text x="0" y="0" dx="0em" dy="0.3em" style="text-anchor: end; visibility: hidden; font-family: Roboto, sans-serif; font-size: 12px; font-weight: 200;" fill="rgb(50, 49, 63)" stroke="none" stroke-width="1px">0.3</text></g><line x1="46.5" y1="0" x2="46.5" y2="177" fill="rgb(0, 0, 0)" stroke="rgb(204, 204, 204)" stroke-width="1px"></line></g></g><g transform="translate(46, 0)" clip-path="url(#clip_0)"><clipPath id="clip_0"><rect width="283" height="177"></rect></clipPath><g><g><g><line x1="0" y1="0" x2="0" y2="177" fill="rgb(0, 0, 0)" stroke="rgb(60, 60, 60)" stroke-width="1px" opacity="0.25"></line><line x1="25.772727272727273" y1="0" x2="25.772727272727273" y2="177" fill="rgb(0, 0, 0)" stroke="rgb(60, 60, 60)" stroke-width="1px" opacity="0.25"></line><line x1="51.54545454545455" y1="0" x2="51.54545454545455" y2="177" fill="rgb(0, 0, 0)" stroke="rgb(60, 60, 60)" stroke-width="1px" opacity="0.25"></line><line x1="77.31818181818181" y1="0" x2="77.31818181818181" y2="177" fill="rgb(0, 0, 0)" stroke="rgb(60, 60, 60)" stroke-width="1px" opacity="0.25"></line><line x1="103.0909090909091" y1="0" x2="103.0909090909091" y2="177" fill="rgb(0, 0, 0)" stroke="rgb(60, 60, 60)" stroke-width="1px" opacity="0.25"></line><line x1="128.86363636363635" y1="0" x2="128.86363636363635" y2="177" fill="rgb(0, 0, 0)" stroke="rgb(60, 60, 60)" stroke-width="1px" opacity="0.25"></line><line x1="154.63636363636363" y1="0" x2="154.63636363636363" y2="177" fill="rgb(0, 0, 0)" stroke="rgb(60, 60, 60)" stroke-width="1px" opacity="0.25"></line><line x1="180.4090909090909" y1="0" x2="180.4090909090909" y2="177" fill="rgb(0, 0, 0)" stroke="rgb(60, 60, 60)" stroke-width="1px" opacity="0.25"></line><line x1="206.1818181818182" y1="0" x2="206.1818181818182" y2="177" fill="rgb(0, 0, 0)" stroke="rgb(60, 60, 60)" stroke-width="1px" opacity="0.25"></line><line x1="231.95454545454547" y1="0" x2="231.95454545454547" y2="177" fill="rgb(0, 0, 0)" stroke="rgb(60, 60, 60)" stroke-width="1px" opacity="0.25"></line><line x1="257.7272727272727" y1="0" x2="257.7272727272727" y2="177" fill="rgb(0, 0, 0)" stroke="rgb(60, 60, 60)" stroke-width="1px" opacity="0.25"></line><line x1="283.5" y1="0" x2="283.5" y2="177" fill="rgb(0, 0, 0)" stroke="rgb(60, 60, 60)" stroke-width="1px" opacity="0.25"></line></g><g><line x1="0" y1="177" x2="283.5" y2="177" fill="rgb(0, 0, 0)" stroke="rgb(60, 60, 60)" stroke-width="1px" opacity="0.25"></line><line x1="0" y1="162.25" x2="283.5" y2="162.25" fill="rgb(0, 0, 0)" stroke="rgb(60, 60, 60)" stroke-width="1px" opacity="0.25"></line><line x1="0" y1="147.5" x2="283.5" y2="147.5" fill="rgb(0, 0, 0)" stroke="rgb(60, 60, 60)" stroke-width="1px" opacity="0.25"></line><line x1="0" y1="132.75" x2="283.5" y2="132.75" fill="rgb(0, 0, 0)" stroke="rgb(60, 60, 60)" stroke-width="1px" opacity="0.25"></line><line x1="0" y1="117.99999999999997" x2="283.5" y2="117.99999999999997" fill="rgb(0, 0, 0)" stroke="rgb(60, 60, 60)" stroke-width="1px" opacity="0.25"></line><line x1="0" y1="103.24999999999999" x2="283.5" y2="103.24999999999999" fill="rgb(0, 0, 0)" stroke="rgb(60, 60, 60)" stroke-width="1px" opacity="0.25"></line><line x1="0" y1="88.5" x2="283.5" y2="88.5" fill="rgb(0, 0, 0)" stroke="rgb(60, 60, 60)" stroke-width="1px" opacity="0.25"></line><line x1="0" y1="73.75" x2="283.5" y2="73.75" fill="rgb(0, 0, 0)" stroke="rgb(60, 60, 60)" stroke-width="1px" opacity="0.25"></line><line x1="0" y1="58.999999999999986" x2="283.5" y2="58.999999999999986" fill="rgb(0, 0, 0)" stroke="rgb(60, 60, 60)" stroke-width="1px" opacity="0.25"></line><line x1="0" y1="44.25" x2="283.5" y2="44.25" fill="rgb(0, 0, 0)" stroke="rgb(60, 60, 60)" stroke-width="1px" opacity="0.25"></line><line x1="0" y1="29.499999999999993" x2="283.5" y2="29.499999999999993" fill="rgb(0, 0, 0)" stroke="rgb(60, 60, 60)" stroke-width="1px" opacity="0.25"></line><line x1="0" y1="14.749999999999968" x2="283.5" y2="14.749999999999968" fill="rgb(0, 0, 0)" stroke="rgb(60, 60, 60)" stroke-width="1px" opacity="0.25"></line><line x1="0" y1="0" x2="283.5" y2="0" fill="rgb(0, 0, 0)" stroke="rgb(60, 60, 60)" stroke-width="1px" opacity="0.25"></line></g></g></g><g><g><line x1="0" y1="221.25" x2="283.5" y2="221.25" fill="rgb(0, 0, 0)" stroke="rgb(153, 153, 153)" stroke-width="1.5px"></line></g></g><g><g><line x1="25.772727272727273" y1="0" x2="25.772727272727273" y2="177" fill="rgb(0, 0, 0)" stroke="rgb(153, 153, 153)" stroke-width="1.5px"></line></g></g><g><g><g><g><g><path stroke="rgb(255, 112, 67)" stroke-width="2px" d="M25.865509090909093,44.17451635003089L26.324263636363636,38.97444283491685L26.65930909090909,81.16538503375658L27.030436363636362,91.52315877824282L27.107754545454547,92.12152078879654L27.844854545454545,64.3015997721547L28.025263636363636,65.857688115429L28.16959090909091,55.89763408777508L28.401545454545452,45.014696819335875L28.5201,42.14989039344869L28.545872727272727,48.62484157255816L28.638654545454543,53.441985777282696L28.84483636363636,59.09886121239806L29.16441818181818,48.08146697754193L29.710800000000003,49.64695671158106L29.91698181818182,57.339898406761534L30.236563636363638,54.253768817776034L30.339654545454547,62.409225545086066L31.004590909090908,72.76402955096503L31.06129090909091,64.39761241133756L31.11799090909091,72.0299833103211L31.571590909090908,73.52774002094073L31.607672727272725,81.55431924727533L31.77261818181818,65.50485099384198L31.83447272727273,70.9036053499101L31.87570909090909,69.25553383258924L32.22621818181818,63.073528791097175L32.23652727272727,56.90830049390573L32.32415454545455,65.0124765765198L32.86538181818182,56.14491739615959L33.07671818181818,57.35524315345925L33.28805454545455,52.81583890077535L33.47361818181818,32.52364582686968L33.55609090909091,18.035877181884647L33.571554545454546,7.8210932740465156L33.751963636363634,15.064481073873905L33.83959090909091,8.669728068219868L34.38081818181818,10.892245299723475L35.77254545454545,17.589290846065698L35.87563636363636,9.188263930133648L35.880790909090905,18.5546822825709L37.9323,34.699553959664144L38.32919999999999,42.284324473954456L38.35497272727273,37.437738406107556L38.463218181818185,35.930375508108845L38.47868181818182,52.491259474311136L38.67455454545455,50.35805201614885L39.05599090909091,45.806476130577686L39.169390909090914,46.18048825315596L39.35495454545455,-15.432443827953245L39.39619090909091,-6.418817649994266L39.607527272727275,0.4860731086952541L39.65391818181818,12.02684592184258L39.73123636363636,23.494854518154003L39.77762727272727,26.240250345124107L40.04050909090909,35.22043908262026L40.128136363636365,41.26287461479902L40.43225454545454,43.69198954677627L40.51988181818182,51.42536584891442L41.097190909090905,54.755670592639106L41.664190909090905,57.317718876244754L41.66934545454546,43.38184434564766L41.772436363636366,38.64125587040291L41.77759090909091,27.566913393803215L41.98377272727272,33.382685060530875L42.26211818181818,37.00930682054455L42.3549,31.496396118742346L42.47860909090909,41.58629515674363L42.602318181818184,39.08338566370069L42.61778181818182,31.73110584799372L43.07138181818181,35.73300897492848L43.318799999999996,34.95682526498038L43.726009090909095,43.53377829524257L43.81363636363636,52.41899679612401L43.94765454545454,41.808539187552256L44.153836363636366,46.650816352031335L44.32909090909091,56.6042135568261L44.41156363636364,67.29312919734234L44.60743636363636,53.137746276780184L44.64351818181818,42.24755328822537L44.6796,37.19050054598326L44.69506363636364,40.054343798115454L44.906400000000005,32.81054208663455L45.26721818181818,29.6375303616218L45.60741818181818,47.921638591774965L45.95277272727273,50.49600040967548L46.04555454545455,46.183940528956825L46.26204545454545,45.958397545993805L46.452763636363635,57.14624630361481L46.509463636363634,43.019172438858156L46.952754545454546,44.3895368922004L47.01460909090909,45.35098257814923L47.14347272727273,53.114871012635106L47.32388181818182,54.7566901515522L47.380581818181824,46.63570726673108L47.56099090909091,50.6630904306395L48.03005454545455,46.21384744294357L48.0816,42.536713282460695L48.731072727272725,59.137782417878576L49.16920909090909,69.64680788006403L49.29807272727273,54.935653773134796L49.73620909090909,41.66476966649105L49.947545454545455,41.27193261765258L50.67949090909091,48.82367643754421L50.70010909090909,49.471986952493864L50.93721818181818,43.28982881379206L51.081545454545456,52.75844253046189L51.95266363636363,59.355224843223766L51.99905454545454,62.25744641553591L52.00936363636364,73.74830231963004L52.225854545454546,74.38877892943974L52.246472727272725,78.48513166170278L52.34440909090909,76.09382680152069L52.50935454545454,77.0384256034354L52.57636363636364,85.20163369699632L52.70522727272727,87.1042445927926L52.77223636363637,75.20923579084175L52.895945454545455,74.0628762976262L53.06604545454545,78.5014817064636L53.18975454545455,44.1903245310116L53.4114,48.49938977659565L53.62273636363636,49.696688369056886L53.88561818181818,55.884727828345405L54.98353636363636,56.7137266833926L55.4526,71.47582719526892L55.83403636363636,65.95894885073986L56.00929090909091,61.53802563202452L56.0763,55.106031144407645L56.4732,53.15966397182895L56.60206363636363,62.75665830771025L56.68453636363636,65.87079467997809L56.97319090909091,76.44171124621879L57.27215454545455,73.6284426165489L57.41132727272728,73.2492085185065L57.43194545454545,73.00008096102914L57.85977272727273,61.93905281282676L57.95255454545454,61.906701332853785L58.13811818181818,58.59587045311414L58.411309090909086,61.327793144512405L58.42161818181818,66.31516022982993L58.54532727272728,50.479174220472515L58.550481818181815,34.622999376756404L58.576254545454546,23.772844648415013L58.60202727272727,24.954407363952125L59.421600000000005,41.163942788487574L59.54015454545455,35.80860466483183L59.60716363636363,48.29391609161776L59.63293636363637,57.9249427288517L59.71540909090909,58.098293895839525L59.74118181818182,61.50063681342013L59.78757272727273,43.10986945164797L59.870045454545455,42.79138800665264L60.462818181818186,40.117075665126734L60.56590909090909,35.851722325251316L60.83394545454546,50.07959153190479L61.040127272727275,56.51000771605086L61.08136363636363,64.34015618622378L61.421563636363636,64.73752190824516L61.43702727272727,67.56147271609893L61.80815454545454,55.208011935049164L61.83392727272727,51.65491631553392L61.84423636363637,49.928454012812L62.13289090909091,63.22341739276443L62.45762727272727,68.574517272108L62.69989090909091,74.31129660431145L62.92153636363636,79.56073012456712L63.15864545454546,87.1704041184755L63.26689090909091,84.54637529645044L63.44214545454546,81.9823845533185L63.59678181818182,79.92702744231119L63.674099999999996,77.6013670751089L64.10192727272727,79.98637256755609L64.24625454545455,79.13834819868269L64.26687272727273,75.99026406926166L64.27718181818182,80.39486188036518L64.46274545454546,85.1358255121025L64.65346363636364,71.83694096108093L64.9111909090909,78.36040019290502L64.96789090909091,65.36989973421538L65.17407272727273,77.95639502090171L65.6019,74.84366327759912L65.61736363636363,73.15391219942809L65.75138181818183,74.19190453988476L65.94725454545454,63.179276722483344L66.08642727272728,64.1583017482442L66.26168181818181,73.37174934895799L66.46786363636363,82.1337721501772L66.93692727272727,94.00412420864886L67.63794545454545,92.75381289903748L67.75134545454546,95.25421597257521L68.50906363636363,83.00791199684987L68.53483636363636,85.49821444872634L68.95235454545454,94.73138662376472L69.05544545454545,103.6098627706626L69.83378181818182,103.12221272621237L69.86470909090909,84.1358590711669L70.1946,83.4956978260803L70.40593636363636,73.05129937656932L70.42655454545455,72.05827646843625L70.58634545454545,70.9372852963529L70.74098181818182,78.22764013364288L70.88530909090909,64.10770109968068L71.00901818181819,60.162969207314504L71.01932727272727,57.878867014675144L71.25128181818182,65.79116124193273L71.30282727272727,62.697178108847005L71.49354545454545,64.21807820030739L71.52962727272728,63.87250419184821L72.4626,63.75183745746227L72.78733636363637,63.088211721981956L72.94712727272729,68.42246332373587L73.2564,77.82325601450393L73.46258181818182,89.38031328804281L73.66360909090909,86.16465264286641L73.72546363636363,79.96142713241512L73.84917272727273,88.32084986762672L74.01411818181819,78.34529106079214L74.93678181818183,76.43568537073783L74.98317272727273,70.83884222547225L75.62233636363636,76.79873028924038L75.83367272727273,86.49191080060896L76.0450090909091,95.6766817481697L76.05016363636364,104.19079342266929L76.14294545454545,99.20560100301773L76.4779909090909,104.93068986675532L76.545,103.67189062194504L76.63262727272726,110.74789681178876L76.7718,112.47493828668904L76.89035454545454,13.091103717374802L77.05014545454546,14.982363657430918L77.0553,12.034698435235647L77.11200000000001,5.653101019617079L77.17900909090908,7.222468327815306L77.20993636363637,20.327299405594978L77.2821,29.23773179096248L77.64291818181817,36.910476882659545L77.78209090909091,46.37445201312414L77.94188181818183,48.00448944646649L78.02950909090909,59.10701989078151L78.3027,60.61554755072642L78.39032727272728,66.8433170644109L78.42640909090909,77.72736541401085L78.76145454545454,73.50779192418292L79.08103636363637,76.37221583818759L79.0965,84.05530306451611L79.10165454545455,71.5650648645641L79.35422727272727,81.35412447170565L79.61195454545454,77.67187328649432L79.64288181818182,79.67975093287627L79.64803636363636,74.46823199117436L79.67896363636363,71.54618492296204L79.9006090909091,74.11432747308947L79.98823636363636,81.4368091290448L80.20988181818183,84.2068372978563L80.39029090909091,79.7488047388513L80.63255454545454,86.85808072045201L80.64286363636364,99.65562270674813L80.96244545454545,70.88891348173026L81.01399090909092,64.06476746584828L81.05007272727272,69.39005071449232L82.59128181818181,69.7019562828063L82.61705454545454,79.41582192101748L82.65829090909091,88.88514861608729L82.75107272727273,93.62940992917683L82.95725454545455,95.70491084238505L83.08096363636363,105.50547605035919L83.1118909090909,108.22148038323284L83.5654909090909,98.47555900402334L83.59641818181818,97.37015717286536L84.17888181818181,90.72656091801828L84.50361818181818,81.4252849675902L84.58093636363635,84.39987217703762L84.75619090909092,87.24783849256698L85.62215454545453,80.47269785288495L86.26647272727273,75.2500813205543L86.52420000000001,78.8735235593777L86.6943,84.10408981401385L86.83862727272728,96.981192464927L86.94171818181817,93.9517852830576L86.98810909090909,94.20630230018686L87.48294545454546,102.05088460230213L87.76644545454545,88.22330230131611L88.01901818181818,86.92630417187377L88.52931818181818,83.24921603461495L88.54993636363636,68.26071055644962L88.8385909090909,72.30743867380247L89.18394545454545,75.20922200506493L89.25610909090909,68.97884356938765L89.4519818181818,77.29216705676635L89.65816363636364,85.4995953001091L89.67878181818182,90.6700392197083L89.68909090909091,89.07702835325985L89.79733636363636,93.85807615376658L89.87980909090909,90.09453929385958L90.08083636363637,88.98398056109025L90.09114545454545,70.4241658849646L90.10145454545454,73.88924296377273L90.48289090909091,63.98379023979438L90.72515454545454,58.42225567499088L91.2766909090909,68.9802727006314L92.27151818181818,64.50303504488801L92.29213636363636,48.4806164618305L92.49316363636363,45.46453890347224L92.63749090909091,46.29109391251573L92.6581090909091,25.53060858260996L93.75087272727272,28.44479909221599L94.3488,39.56594415989766L94.58075454545454,50.67950379241044L94.78178181818183,40.299506497876585L94.93641818181818,39.05179801210468L95.12713636363637,51.70563094429416L95.47249090909091,63.48185214128122L95.61681818181819,74.68747778718351L95.65805454545455,55.48702320293787L95.9931,40.45968119802654L96.09103636363636,44.4887584775917L96.11680909090909,50.88072952227882L96.91576363636364,47.40059335467598L97.15802727272727,56.07786005977436L97.50338181818182,70.50255395512936L97.78688181818183,83.82902444656487L97.83327272727273,94.51669168477473L97.9672909090909,85.58002536301508L98.17347272727272,92.69675633322923L98.84871818181817,93.76541245515702L98.90541818181818,93.41421644570431L98.9982,95.22466293959619L99.26623636363637,97.49270927448988L99.3023181818182,106.70563457606661L99.76107272727273,105.5241601604083L99.79715454545455,85.0031064842217L100.02395454545454,82.11769146642739L100.09611818181818,85.95637760315824L100.69404545454545,85.47093879510004L100.91053636363637,84.83882889594769L101.14764545454545,53.91451616984129L101.26104545454545,65.88827371136715L101.7765,73.54117034147416L102.15793636363635,70.71728028300612L102.32288181818181,75.80114180543907L102.38989090909091,84.09206901966532L102.41050909090909,88.72525905426441L102.70431818181818,77.53583751490203L102.78163636363637,79.96689917031364L103.18884545454546,91.78020306237134L103.42595454545454,92.15102448589434L103.43110909090909,94.20313158953336L103.45172727272727,101.85808605655266L103.6579090909091,103.28967850316374L103.73007272727273,108.76712162301371L103.80223636363637,109.13529472653948L103.87955454545454,101.21491554771258L104.0445,96.43841598982567L104.11666363636364,86.83747693498388L104.81252727272728,78.02236739933008L104.95685454545455,90.53218051487517L105.00324545454546,75.71678346867246L105.25066363636364,74.27132625706389L105.44138181818181,71.87292453790361L105.47230909090908,79.09098088423599L105.61663636363637,79.10410233301094L106.23518181818183,86.19961464632007L106.3795090909091,86.35217153336217L106.76094545454545,90.76767209706256L106.81249090909091,92.79876514706804L107.00836363636363,89.86738224938925L107.17846363636365,89.15606731279566L107.31763636363635,82.06407718304284L107.59082727272727,88.64515545168658L107.8434,78.38444470345205L108.41040000000001,83.94370982628368L108.63719999999999,89.38705689085694L108.84853636363636,101.49131709889734L109.19904545454546,93.95734157761483L109.2042,90.32841787428154L109.48769999999999,91.99480651563847L109.85882727272727,89.42589959871569L110.02892727272727,92.58674361665663L110.26603636363636,81.7621637585129L110.36397272727272,86.42616193688204L110.44644545454545,62.112752999630175L112.01342727272727,71.6882271650582L112.03404545454546,64.18463158605837L112.54434545454545,65.72115567399571L112.7092909090909,80.21663996195952L112.78145454545454,89.03404453128121L112.79691818181819,99.35710776765232L112.92062727272727,96.54465016501325L113.12680909090909,91.70394616672854L113.4103090909091,97.50908618658299L113.48247272727272,103.14040401829345L113.67834545454545,98.39556116688007L113.79174545454545,102.70029300334534L114.01854545454546,105.51221607930195L114.04947272727273,105.8639381346708L114.05462727272727,108.0273583733385L114.1371,100.92117907062277L114.75564545454546,105.50049525868987L114.8071909090909,107.19031017904368L115.4308909090909,103.07094023199278L115.6216090909091,101.74882771958168L116.30200909090908,107.52389061724475L116.65767272727273,117.589358072675L116.94632727272727,119.27363542276326L116.99271818181818,118.10444945893619L117.16797272727273,105.65848568649827L117.35869090909091,104.2746611720777L117.89991818181818,98.74020652053859L117.94115454545455,99.38607361386514L117.96177272727272,101.53605107414988L118.2195,111.76074254317521L118.58031818181819,112.18722238290403L119.17824545454546,116.0801102852651L119.21948181818182,116.2460813196744L119.2401,119.99037693826068L119.26071818181818,121.5038149454836L119.62153636363637,118.5111517927328L119.97720000000001,122.03084101643677L120.26585454545454,113.10725459039075L120.64213636363637,118.1268157366353L120.76584545454546,126.13729530631565L120.96687272727272,127.53201010540779L121.03388181818181,125.9005810972958L121.08027272727273,112.37847600790047L121.24521818181817,110.76258948292296L121.72974545454547,108.11094871919715L121.82252727272729,101.524211504412L121.87922727272728,108.70672864170578L122.46169090909092,119.94144356286165L122.46684545454546,97.6848126593438L122.49777272727272,94.06677142320937L122.51323636363637,89.46319867779792L122.5750909090909,97.72025502496939L122.65240909090909,106.29894097431581L123.21425454545454,104.26381164223623L123.66269999999999,106.14616349053982L124.27093636363637,93.60679363202395L124.29155454545455,87.38100630782257L124.78639090909091,49.861156458338L125.14205454545454,60.0990433060496L125.3533909090909,69.761360807422L125.65235454545456,77.06726409893024L125.80183636363637,55.37166024357784L125.874,62.67476042459049L126.27605454545454,62.492837380018564L126.29151818181819,61.47556589154607L126.52347272727272,74.33199241071824L126.88944545454545,71.93210784101383L126.97191818181818,53.809785382484456L127.08016363636364,58.167131367208114L128.04406363636363,63.2415337804391L128.14715454545455,52.79776951909965L128.32240909090908,53.37415511525486L128.40488181818182,49.02564065262807L128.46158181818183,62.123835288369364L128.77085454545454,69.32239228931103L128.79147272727272,70.8875290329489L128.85848181818182,80.06183601582642L128.9358,86.2762730743551L130.4667,84.97066025892472L130.72958181818183,89.97647051290787L130.89452727272726,84.05749047645432L130.94091818181818,59.89726942642184L131.03885454545454,62.925194995376344L131.13163636363637,72.97357641244488L131.4048272727273,77.31180762202642L131.84296363636363,80.57748110548646L131.85842727272728,90.28749170990429L132.04914545454545,79.87467106960692L132.19347272727273,85.3174620225204L132.28625454545454,78.86281648464555L132.29656363636363,81.52748690191706L132.78109090909092,90.91697152143388L133.1986090909091,81.9401456476957L133.74499090909092,3.1456327046493495L133.7656090909091,4.844410600263437L133.85323636363637,15.225912297813814L133.87900909090908,27.28244433593637L133.90993636363638,41.602837514134215L134.0181818181818,40.43974383585331L134.20374545454544,36.503110652381274L134.28621818181819,45.87278596889743L134.68311818181817,52.92001814244779L135.07486363636363,55.991769676791954L135.0954818181818,58.80924123113213L135.2191909090909,66.42324900144212L135.39444545454546,74.31174453434828L135.62124545454546,78.80272940251962L136.02845454545454,82.80732585150362L136.17793636363635,78.72244828037942L137.01812727272727,89.09432259079836L137.07482727272728,95.91879242846687L137.1006,95.1241526568471L137.1366818181818,85.02183642070341L137.21915454545453,82.73124886897965L137.50265454545453,95.73836969876525L137.51296363636365,101.5507544506571L137.80161818181818,101.89826031884384L138.20367272727273,95.18209193224457L138.37377272727272,106.9816380428314L139.49746363636365,108.5383109245038L139.62117272727272,115.96003941014433L139.87374545454546,85.18816052062829L139.9252909090909,64.90577220037747L140.00776363636362,65.92619443638773L140.3531181818182,62.99018101129221L140.5799181818182,70.49607533387798L140.64177272727272,74.76338334237747L140.75517272727274,82.45860235263596L141.12114545454546,89.38256695042273L141.13145454545455,97.84137718382675L141.32217272727272,104.61747369359314L141.82216363636365,100.72480551845175L142.79121818181818,104.16253461081989L143.06956363636365,106.47895800968298L143.1984272727273,111.872018853056L143.92006363636364,110.53606519108494L144.05923636363636,111.27469666903153L144.62623636363637,114.63306258042097L144.69324545454546,116.07868339049315L144.8118,114.25445411736514L144.87365454545454,97.29016268969845L145.67776363636364,99.04723376531544L145.86332727272728,96.66157511695454L146.0282727272727,100.95069806567635L146.4200181818182,101.79872574620073L146.42517272727272,110.33547181006632L146.90454545454546,103.22185260608522L147.3633,89.49069935877378L147.3736090909091,96.1803890024059L147.65195454545454,100.23739395143984L147.6674181818182,99.21923828216549L149.84263636363636,102.7700467930033L150.61581818181816,110.95168963305302L151.43023636363637,99.27344204692973L151.72404545454546,93.30419821702482L151.8993,91.39869406667091L151.9199181818182,86.5156181403703L152.01785454545455,84.86875802266954L152.6054727272727,83.29036331911408L153.11061818181818,88.04617787217667L153.18278181818184,77.93148822917554L153.38896363636363,77.76479127109657L153.74978181818182,86.52537973240561L153.8271,96.87440413194639L153.99204545454546,99.50779738686448L154.0281272727273,109.57517561973526L154.31678181818182,118.03755820500605L154.41987272727275,127.46379201304579L154.4301818181818,126.44934204690158L154.5899727272727,123.21048689236491L154.90955454545454,117.94225569308027L155.21367272727275,123.35668684458932L155.60026363636365,123.45999009683314L155.91984545454545,99.99680768496916L156.68787272727275,101.2738314886134L156.92498181818183,95.07097107120524L157.04353636363635,102.49914334593568L157.79094545454547,109.2392771851571L157.98166363636363,108.90661800234483L158.04351818181817,109.82732710387377L158.17753636363636,95.79492059778632L158.26000909090908,103.91463326415236L158.31155454545456,99.16799246446027L158.32186363636362,109.46284724966347L158.53835454545455,109.74168188448837L158.83216363636365,106.95294529565655L158.90948181818183,105.64618710757924L159.31153636363635,112.52244594058364L159.3630818181818,120.41815214479836L159.4249363636364,113.74783585779254L159.73936363636363,113.80789727996931L160.2909,113.04349063513705L160.3372909090909,120.20340532931415L160.37852727272727,122.20761714165859L160.41976363636365,129.20350417843125L160.57955454545456,136.38321026262486L161.14655454545453,131.35144694832127L161.28572727272729,131.13506996463678L161.35273636363635,135.35642817502568L161.36304545454547,140.25675142826452L161.73417272727272,134.46154988576606L161.96097272727272,122.7063185954359L162.6259090909091,117.62372583755258L162.81662727272726,124.62415406465593L162.8424,119.2268853875404L163.12074545454547,126.6749149358561L163.3630090909091,116.12541862991065L163.6722818181818,115.82356999367427L163.99186363636363,107.25056416586L163.99701818181816,96.57816906388065L164.50216363636363,104.6914844068777L164.7908181818182,109.49039029691143L165.0176181818182,113.70024199140242L165.09493636363635,116.27221621440802L165.24957272727275,115.72458409026521L165.48152727272728,118.24771813903978L165.57946363636364,118.78585040439425L165.66709090909092,121.96146030607157L166.53305454545455,118.78910558118521L166.83717272727273,116.36522068107813L167.22376363636363,113.47748161278388L167.23922727272728,110.38754259874423L167.2856181818182,106.30472145897153L167.63097272727273,102.02716624667049L167.71344545454545,104.78523939002874L168.17219999999998,105.22500280275334L168.30106363636364,107.57036912427297L169.02785454545457,110.85333484473183L169.19795454545454,103.53046696018299L169.23919090909092,105.25194498343278L169.5536181818182,109.41449095816621L169.96082727272727,96.68775085369833L170.1309272727273,101.84629797944507L170.33195454545455,105.4146008659966L170.62576363636362,109.31343323092761L171.1463727272727,113.24682568439336L171.24430909090907,118.21923012036228L171.9711,114.91717550827391L172.42985454545453,118.76743991976971L172.4710909090909,101.8597939146101L172.7545909090909,110.69293636374528L172.85252727272726,112.92383165248802L173.11540909090908,107.86491609220418L173.27004545454545,113.62536788117627L173.33705454545455,106.5517526876784L174.18239999999997,103.5809445093742L174.1927090909091,107.83752943037491L174.5019818181818,113.94957395047133L174.64630909090909,124.63675151417371L175.11021818181817,125.15870099276049L175.12052727272726,129.4148403313882L175.1720727272727,131.2127781427318L175.86793636363635,134.52327759710676L175.90401818181817,133.57057231275195L176.58957272727272,140.69064256179738L176.85245454545455,119.94813235814938L177.07410000000002,118.65246932699296L177.3369818181818,126.41727486117044L177.47615454545453,119.55820374292158L177.78027272727275,114.06938780190369L178.16686363636364,114.09240145690876L178.45036363636365,110.59450553394234L178.53283636363636,82.91715158406086L178.71324545454544,88.36688442200291L178.74417272727274,88.74818571883324L179.2957090909091,95.38605451154307L179.3317909090909,102.01189865902894L179.41941818181817,111.81443150459229L179.53797272727275,115.23659734608381L179.62560000000002,123.24644089149669L179.75961818181818,120.4319770968607L180.21837272727274,119.49106132268767L180.27507272727271,121.3165505870121L180.40393636363638,122.3194348195735L180.6925909090909,126.18982493359239L180.75444545454545,126.05529815982335L180.82145454545454,123.04570932862654L181.44,120.98981364528088L181.66164545454546,106.64183922672045L181.71834545454547,87.61597063896451L181.72865454545453,82.10331355116419L181.7492727272727,92.1844288986026L181.95545454545456,100.73995302709329L182.12555454545452,93.17448615812411L182.20802727272726,89.1692706215365L182.58946363636363,90.24942056250421L183.5739818181818,86.73001546482905L183.96572727272726,85.78387671772239L184.03273636363636,98.2001317893253L184.28015454545454,104.59319172246335L184.7956090909091,105.25742926472196L185.00694545454544,93.00202911293898L185.14611818181817,99.64469786163924L185.27498181818183,108.83164114923855L185.32137272727272,108.56754268039684L185.3523,111.13153112154683L185.39353636363634,104.43335258711706L185.59456363636366,115.32755097024474L186.17187272727273,106.7476626658991L186.65124545454546,107.11497727107L186.82134545454548,108.33793074030572L187.18216363636364,117.32552027919645L187.30071818181818,124.40046214284379L187.50174545454544,118.37117775429974L187.67700000000002,111.88796894237122L187.98111818181818,117.34933532425511L188.69244545454544,119.88587026170266L188.80584545454548,112.39482822079692L188.96563636363638,109.68795844518456L189.15120000000002,103.76968589666467L189.17181818181817,99.8165919310717L189.21305454545455,92.60444673987045L189.53779090909092,88.77572623424363L189.55325454545454,100.63629797968385L190.09448181818183,108.41414600050257L190.21303636363635,114.1161092208547L190.2955090909091,118.60534845136605L190.36767272727275,124.96494435713889L190.47591818181817,130.2722015204686L190.59447272727272,126.38205243775172L190.68725454545452,128.38477688919536L190.79034545454547,128.00767125166385L191.6099181818182,136.7075058749677L191.7903272727273,124.79570684713374L192.02743636363638,104.81106274171695L193.33153636363636,104.14746659929175L193.40370000000001,112.39097634998369L193.6511181818182,112.28358751950331L193.8933818181818,114.71152269990145L194.5634727272727,114.43220007405489L194.89851818181816,113.98318581717439L194.90367272727272,115.51186231542134L194.9655272727273,118.54667917692817L194.97068181818182,116.40278703693292L195.3675818181818,111.72478904998668L195.69747272727273,118.50203311396123L195.80056363636362,127.06491095586102L195.9345818181818,97.76513318207992L196.11499090909092,103.67611944663942L196.82631818181818,110.47449377913851L197.0325,103.73232512390237L197.31084545454544,109.81083250015038L197.89846363636366,99.48340576263419L197.97578181818182,103.98551697951989L198.00155454545455,104.90626886492167L198.06856363636362,114.90959523296901L198.1458818181818,115.89251832896366L199.48606363636364,119.74283506408835L199.5273,117.87896876724517L199.73863636363637,113.14443776183087L199.7437909090909,106.39259744068467L200.01182727272726,114.80179903884664L200.15099999999998,117.11650738921703L200.30048181818182,102.66384573108202L200.32625454545453,104.94359714233498L200.33656363636362,101.09420425021905L200.43965454545454,106.93596747397713L201.13551818181818,107.5047228727877L201.48602727272728,102.87216797418652L201.57880909090912,98.6349582928174L202.04271818181817,104.53554751420796L202.44992727272728,106.4651451918016L202.4757,105.91019850932331L202.90352727272727,99.33859664093947L203.4189818181818,102.18991778023386L203.47568181818184,104.23484230095754L203.5993909090909,104.40275848184176L204.06845454545453,102.22140832490459L204.23855454545455,109.35737187039912L204.4705090909091,96.35876819675022L204.8467909090909,88.11175695226956L205.20760909090907,96.42937156297L205.4344090909091,100.63724766883757L205.54780909090908,18.586566991032743L205.71275454545454,22.25118777208471L205.82615454545453,33.63050572211691L205.86223636363636,32.936176877932084L205.90862727272727,40.114261907383494L205.91893636363636,43.95394151095572L205.92924545454545,48.762686897969466L206.01171818181817,51.624540958246186L206.28490909090908,62.416295949838094L206.41892727272727,73.91610908364194L206.56840909090909,76.40056532566193L206.76943636363634,77.41718570391335L206.90345454545454,83.85496413707732L207.07355454545456,90.06281022503971L207.30035454545452,96.0943155633658L208.12508181818183,101.00107617502658L208.46012727272728,99.30488342263027L208.57352727272726,97.90534539938918L208.64053636363636,99.68442800421373L208.8931090909091,101.04177155594995L209.02197272727273,96.12632078827296L209.1663,101.88676796094363L209.21269090909092,104.78753130944774L209.45495454545454,106.55853327046816L209.54773636363637,106.53504960698768L209.8106181818182,110.63895043213265L210.1198909090909,103.85087297689107L210.55802727272726,110.32402671201098L210.68689090909092,119.53817460592971L210.88791818181818,125.79178610919165L211.06832727272726,129.58653437997324L211.33636363636364,129.02079104249557L211.3776,131.03506754441452L211.97037272727272,130.9265886766767L212.06830909090908,129.3834095990409L212.29510909090908,132.15380178987232L212.68685454545454,133.2682591771267L212.73324545454545,126.55430383713684L213.62498181818182,124.46323173998273L213.9187909090909,127.18307495907078L214.05796363636364,133.6312082741719L214.40847272727274,125.20556505776003L214.46001818181819,129.68440668290754L214.49094545454545,114.57051922982247L214.58888181818185,113.28053264041523L214.87238181818182,117.50476449067693L214.91361818181818,106.4200968608436L215.09918181818182,114.0576046595881L215.7898909090909,117.7134472294071L215.9032909090909,121.61602662847208L215.9136,114.93981367882286L215.92906363636365,111.04924996080571L215.9909181818182,113.660363892161L216.06308181818184,119.77943766290826L216.16617272727274,118.04675467543201L216.19194545454545,123.2923669090783L216.2074090909091,122.48817791529733L216.4702909090909,127.24653779704785L216.82595454545455,128.49042563577964L216.89811818181818,128.886903650899L216.93935454545453,136.40068836998722L217.08883636363635,133.23245412550972L217.3774909090909,141.94962940537278L217.42903636363638,142.227489250213L217.54243636363637,133.45661283788988L218.3826272727273,140.91867221992084L219.05787272727272,140.53824917093695L219.19704545454545,136.3419486413817L219.20735454545454,137.61851732220535L219.39807272727273,137.23529392960324L219.44961818181818,140.71470611266184L219.64033636363635,144.65336174287847L219.8259,147.12087174223467L219.9650727272727,144.64311684638204L220.35166363636364,147.7906672437782L220.63000909090908,145.49599909303737L220.65578181818182,143.36254790590544L221.3207181818182,142.36556987240618L221.4805090909091,145.67261110398655L221.5475181818182,152.56431425271876L221.89802727272726,148.14930117942498L221.9341090909091,146.67870358698906L222.55265454545454,144.27731010532386L223.6351090909091,149.32645348261454L223.64026363636364,135.44926443741312L223.71242727272727,141.1213815462195L223.7485090909091,143.15749705783455L223.93407272727273,146.663732631261L224.1557181818182,146.88075549632745L224.31550909090907,145.14409612995777L224.54746363636363,146.5704783939486L225.37734545454546,149.7115065713822L225.79486363636363,146.33171050042796L225.97011818181818,149.2373140562256L226.18145454545456,153.48905664331585L226.27423636363636,143.23721855488603L226.33093636363637,140.17019139624102L226.92886363636362,141.43048588019428L227.03195454545457,139.0261921718581L227.21236363636362,138.02636232762308L227.39277272727273,144.008351221841L227.85152727272728,144.32457189723382L228.02162727272727,142.42670501140827L228.02678181818183,137.4952941376097L228.85666363636363,141.3062023165265L229.12470000000002,139.13276088617198L229.25871818181818,138.14622711657245L229.64015454545455,142.28970475083224L229.83087272727275,139.41660577433376L229.89788181818182,138.87355923468235L230.38240909090908,139.0692643208596L230.47003636363635,142.55869873500998L230.5215818181818,148.37862251057894L230.53704545454548,149.54403409306408L230.98033636363635,136.76057599286023L231.4751727272727,135.92200862437292L231.69166363636364,141.16621640685028L231.92877272727273,141.61855243023774L231.9700090909091,144.58145320863912L232.1091818181818,144.18421659835926L232.21227272727273,149.77572897551582L232.52154545454547,136.1815224541258L232.85143636363637,135.73409387794416L232.85659090909093,142.21093582133005L232.9545272727273,144.71865538078146L233.16586363636364,140.2894121705079L233.17101818181817,142.9704226336107L233.2380272727273,135.59946242254006L233.42359090909093,137.50911494670237L233.63492727272728,141.37912866244847L233.66585454545455,146.05557516961662L233.8514181818182,140.89852207824026L234.09883636363637,137.29310404665262L234.64521818181817,142.55213799095444L234.738,133.10079896017575L235.0111909090909,131.71845670996305L235.13490000000002,135.057969542219L236.0421,125.58668369594852L236.08333636363636,132.88168842496253L236.33075454545454,134.3680345370034L236.5060090909091,129.65509624960956L236.70188181818182,138.12796707628874L236.81012727272727,129.50984433155094L237.1761,129.66461686106774L237.33073636363636,134.70253137964534L237.46990909090908,140.4442270127105L237.4853727272727,142.88551307339972L237.5059909090909,135.70055343541063L237.78949090909092,130.7116038754513L237.79464545454545,127.68183058395356L237.94412727272726,132.99145792851778L238.46473636363635,133.09070583184004L238.4802,136.0709932628969L238.60906363636363,138.4056237764984L238.87194545454545,144.36946232251046L239.0368909090909,148.62569554677648L239.12967272727272,139.74614156661372L239.54719090909092,130.014721252423L239.81007272727274,131.62004620394242L239.84099999999998,92.20449527109679L239.87192727272728,95.32522337143138L239.8977,98.99222681340142L240.02656363636362,106.51464931517746L240.06264545454545,101.19503391027366L240.13996363636366,101.39480519807265L240.15027272727272,101.89268472208911L240.25336363636364,96.54765144658982L240.48016363636364,88.37298978721708L240.5317090909091,87.6092811839784L240.55232727272727,94.1910064928536L241.0884,98.41727061237134L241.81003636363636,107.04132057762358L241.98013636363635,88.70607750150161L242.05745454545453,97.85052373233522L242.09869090909092,86.09297680160182L242.2791,97.36127521943993L242.32549090909092,91.3719640979345L242.43373636363637,91.83267581246871L242.52651818181818,99.43941369905393L242.53167272727273,96.20344586152721L242.72754545454544,102.70311604905626L242.8254818181818,98.18461408586947L242.87187272727272,102.65417808812842L242.92341818181816,112.64655856919572L242.93888181818184,119.84659451513546L244.14504545454545,111.42938460352175L244.1605090909091,113.95131032005386L244.4800909090909,121.25342297574522L244.6141090909091,117.24358651134943L244.63988181818183,125.48270690785567L245.0213181818182,129.64064318884954L245.86666363636365,135.20876498885048L245.98006363636364,125.00581462115429L246.22232727272726,130.23099893958462L246.62438181818183,134.43094830443943L246.67077272727275,136.15075100866392L246.70685454545455,143.1203063277634L246.74293636363635,149.1671514390318L246.83571818181818,144.27050245583732L246.90272727272725,144.06392560963937L247.1656090909091,145.10245575292507L247.27900909090908,135.7299162189686L248.12950909090907,135.15381796945843L248.37692727272727,138.2421985830937L248.41300909090907,143.65292379664547L248.60888181818183,144.99755474208743L248.62434545454545,150.2644767191987L248.94392727272728,150.1823795767409L249.3562909090909,149.15313269705618L249.9542181818182,152.8411401693765L250.01607272727273,149.86621743155214L250.2738,148.75085181635046L250.45936363636363,152.0279349123665L250.5676090909091,151.77757920192732L250.8975,155.04102335043598L251.33048181818182,145.1158795341955L251.42326363636363,149.53668124989628L251.9541818181818,156.1634919344477L252.05211818181817,156.6047827067905L252.11912727272727,144.76793049242497L252.35108181818183,136.3709340852475L253.3459090909091,135.92813924956107L253.35621818181818,138.2618103825252L253.50054545454546,140.20289478703145L253.88713636363636,142.10217021111077L253.90259999999998,129.41447216007197L254.03146363636364,135.10973101131393L254.37166363636362,136.14197352026946L254.44382727272728,139.63880122597558L254.70155454545454,128.3238461544711L254.82526363636364,126.47743497540942L254.95928181818184,129.292511305589L255.00567272727272,131.45025194894836L255.05206363636364,132.61807109194905L255.06752727272726,134.47497176068643L255.2634,132.49191020671384L255.78916363636364,134.79975345874303L255.99019090909093,135.546657903294L256.2376090909091,138.57148837369704L256.30461818181817,134.61071657826326L256.33554545454547,138.46837573668202L256.3407,142.94056273330008L256.4541,143.74251575540384L256.49533636363634,142.73218073342036L256.77368181818184,148.0464809544202L257.1551181818182,139.35870623504962" style="fill: none;" fill="none"></path></g></g></g></g><g opacity="0.2"><g><g><g><path stroke="rgb(255, 112, 67)" stroke-width="2px" d="M25.865509090909093,44.17451635003089L26.324263636363636,34.29437667131424L26.65930909090909,153.31189619377255L27.030436363636362,116.78576894104481L27.107754545454547,93.9735110476613L27.844854545454545,-38.23122292757034L28.025263636363636,72.41976089775562L28.16959090909091,9.131914526224136L28.401545454545452,-10.76900981366637L28.5201,26.35559491813182L28.545872727272727,86.58031929284334L28.638654545454543,83.19124557077883L28.84483636363636,95.63172176480293L29.16441818181818,-25.870817005634308L29.710800000000003,60.51315978169441L29.91698181818182,112.32119739055634L30.236563636363638,31.625396907329552L30.339654545454547,123.56743305921553L31.004590909090908,151.96946082636714L31.06129090909091,-0.7285317778587341L31.11799090909091,132.3700583167374L31.571590909090908,85.53260318934917L31.607672727272725,146.67962478473783L31.77261818181818,-66.13827332854271L31.83447272727273,115.61663966625927L31.87570909090909,55.48772267997265L32.22621818181818,11.030303090810769L32.23652727272727,4.647803455591196L32.32415454545455,134.13289008662105L32.86538181818182,-19.904054179787636L33.07671818181818,67.786410972476L33.28805454545455,13.519888520240771L33.47361818181818,-143.83516408503056L33.571554545454546,-81.55504263937476L33.751963636363634,78.6231519281864L33.83959090909091,-47.586477026343374L34.38081818181818,30.48933535814284L35.77254545454545,76.7628313601017L35.87563636363636,-65.17923235893252L35.880790909090905,101.60645205527544L37.9323,178.07045184075832L38.32919999999999,109.72998008131981L38.35497272727273,-5.711527019739178L38.463218181818185,22.495671510696404L38.47868181818182,200.238330042921L38.67455454545455,31.309995204210267L39.05599090909091,5.131895616650568L39.169390909090914,49.525179862976074L39.35495454545455,-566.7734405398369L39.39619090909091,74.2857301235199L39.607527272727275,62.34184127300978L39.65391818181818,115.46020261943339L39.73123636363636,126.31915356963873L39.77762727272727,50.86526345461607L40.04050909090909,115.7961768656969L40.128136363636365,95.49584627151489L40.43225454545454,65.50013326108456L40.51988181818182,120.87134193629025L41.097190909090905,84.66856736689806L41.664190909090905,80.33471718430519L41.66934545454546,-81.838178858161L41.77759090909091,-71.97160035371783L41.98377272727272,85.66291794180869L42.26211818181818,69.61426824331284L42.3549,-18.07241648435594L42.47860909090909,132.31733568012714L42.602318181818184,16.574625447392464L42.61778181818182,-34.39334467053416L43.07138181818181,71.7275695502758L43.318799999999996,27.975111231207848L43.726009090909095,120.68717811256646L43.81363636363636,132.34943632036448L43.94765454545454,-53.646321818232536L44.153836363636366,90.21518655121325L44.32909090909091,146.15495899692178L44.41156363636364,163.46453964710236L44.60743636363636,-74.22633789479735L44.6796,-8.313030600547817L44.69506363636364,65.82386508584021L44.906400000000005,-32.372136265039444L45.26721818181818,1.0849730670451987L45.60741818181818,212.45502488221973L45.95277272727273,73.66226777434348L46.04555454545455,7.379907518625246L46.26204545454545,43.92872281372547L46.452763636363635,157.82741555944085L46.509463636363634,-84.11373071372509L46.952754545454546,56.721877455711365L47.01460909090909,54.00340050458908L47.14347272727273,122.98555538058281L47.32388181818182,69.53224182128906L47.380581818181824,-26.44948571920395L47.56099090909091,86.90790846943855L48.03005454545455,6.172281652688974L48.0816,9.443711638450615L48.731072727272725,208.54250521864742L49.16920909090909,164.22524569556117L49.29807272727273,-77.46121644973755L49.73620909090909,-77.7703320980072L49.947545454545455,37.73647524416445L50.67949090909091,116.78805477917193L50.70010909090909,55.30667990446089L50.93721818181818,-12.348721772432327L51.081545454545456,137.97476306557655L51.95266363636363,118.72551139444113L51.99905454545454,88.37714191526173L52.00936363636364,177.16494124382734L52.225854545454546,80.15301503241062L52.246472727272725,115.35199895501135L52.34440909090909,54.57224451005459L52.50935454545454,85.53975742310286L52.57636363636364,158.6700601130724L52.70522727272727,104.22764901071787L52.77223636363637,-31.84531651437285L52.895945454545455,63.74568656086922L53.06604545454545,118.44877112656832L53.18975454545455,-264.6089820563793L53.4114,87.28085175156593L53.62273636363636,60.472344383597374L53.88561818181818,111.57693728804587L54.98353636363636,64.1746988147497L55.4526,204.3344503128901L55.83403636363636,16.30713842809199L56.00929090909091,21.749784946441643L56.0763,-2.781829833984375L56.4732,35.64238376915454L56.60206363636363,149.12949927151203L56.68453636363636,93.89799047261477L56.97319090909091,171.5798639319837L57.27215454545455,48.3090480417013L57.41132727272728,69.83610443770884L57.43194545454545,70.75793460011482L57.85977272727273,-37.61013433337213L57.95255454545454,61.615538187325L58.13811818181818,28.798408582806587L58.411309090909086,85.9150854498148L58.42161818181818,111.20144441723824L58.54532727272728,-92.04464390873909L58.576254545454546,-73.87851685285571L58.60202727272727,35.588468760252L59.421600000000005,187.04972403123975L59.54015454545455,-12.389427274465588L59.60716363636363,160.66169548779726L59.63293636363637,144.60416618734598L59.71540909090909,59.6584541350603L59.74118181818182,92.12171841412783L59.78757272727273,-122.40701414644718L59.870045454545455,39.9250553548336L60.462818181818186,16.04826726019381L60.56590909090909,-2.5364539027214184L60.83394545454546,178.13040289096534L61.040127272727275,114.38374869525433L61.08136363636363,134.81148729100823L61.421563636363636,68.31381317228079L61.43702727272727,92.97702848911285L61.80815454545454,-55.97312919795513L61.83392727272727,19.67705726623535L61.84423636363637,34.39029395580291L62.13289090909091,182.8780831862241L62.45762727272727,116.73441451042889L62.69989090909091,125.94230897724627L62.92153636363636,126.80563047528265L63.15864545454546,155.6574683263898L63.26689090909091,60.930116437375546L63.44214545454546,58.906468339264386L63.59678181818182,61.42881378531455L63.674099999999996,56.67042411863803L64.10192727272727,101.45142167806624L64.24625454545455,71.50612898170948L64.26687272727273,47.65750724822282L64.27718181818182,120.0362417474389L64.46274545454546,127.80449777841568L64.65346363636364,-47.8530189394951L64.9111909090909,137.07153281196952L64.96789090909091,-51.54460355639459L65.17407272727273,191.23485187068582L65.6019,46.8290777504444L65.61736363636363,57.94615257531404L65.75138181818183,83.53383556008339L65.94725454545454,-35.93437321484092L66.08642727272728,72.96952694654463L66.26168181818181,156.29277747124434L66.46786363636363,160.99197711795568L66.93692727272727,200.83729243837297L67.63794545454545,81.50101114064455L67.75134545454546,117.75784358382225L68.50906363636363,-27.208823561668396L68.53483636363636,107.9109364748001L68.95235454545454,177.8299360629171L69.05544545454545,183.51614797487855L69.83378181818182,98.73336233198643L69.86470909090909,-86.74132362008096L70.1946,77.7342466264963L70.40593636363636,-20.94828657805921L70.42655454545455,63.121070303022854L70.58634545454545,60.84836475551128L70.74098181818182,143.84083362296224L70.88530909090909,-62.97175012528896L71.00901818181819,24.660382196307168L71.01932727272727,37.32194729149341L71.25128181818182,137.00180925428867L71.30282727272727,34.85132992267608L71.49354545454545,77.90617901831864L71.52962727272728,60.76233811676502L72.4626,62.66583684831857L72.78733636363637,57.115580104291425L72.94712727272729,116.4307277277112L73.2564,162.43039021268487L73.46258181818182,193.39382872916758L73.66360909090909,57.223706841468804L73.72546363636363,24.132397547364235L73.84917272727273,163.55565447360277L74.01411818181819,-11.434738188982022L74.93678181818183,59.24923416227102L74.98317272727273,20.467253923416138L75.62233636363636,130.43772285804152L75.83367272727273,173.73053539544344L76.0450090909091,178.339620269835L76.05016363636364,180.81779848784208L76.14294545454545,54.33886922895908L76.4779909090909,156.4564896374941L76.545,92.34269741922616L76.63262727272726,174.43195251747966L76.7718,128.01831156015396L76.89035454545454,-881.3634073734283L77.05014545454546,32.003703117370605L77.0553,-14.49428856372836L77.11200000000001,-51.78127571940422L77.17900909090908,21.346774101257317L77.20993636363637,138.2707791030407L77.2821,109.43162325769661L77.64291818181817,105.96518270671366L77.78209090909091,131.5502281859517L77.94188181818183,62.674826346337795L78.02950909090909,159.02979388833046L78.3027,74.1922964900732L78.39032727272728,122.89324268698692L78.42640909090909,175.68380055949092L78.76145454545454,35.531630516052246L79.08103636363637,102.15203106403351L79.0965,153.2030881009996L79.10165454545455,-40.84707893431188L79.35422727272727,169.45566093549132L79.61195454545454,44.53161261975764L79.64288181818182,97.7506497502327L79.64803636363636,27.564561516046517L79.67896363636363,45.24776130914687L79.9006090909091,97.22761042416096L79.98823636363636,147.33914403244853L80.20988181818183,109.13709081709385L80.39029090909091,39.62651170790194L80.63255454545454,150.84156455472112L80.64286363636364,214.83350058319047L80.96244545454545,-188.0114695429802L81.01399090909092,2.6474533230066233L81.05007272727272,117.3175999522209L82.59128181818181,72.50910639762878L82.61705454545454,166.84061266481876L82.65829090909091,174.10908887162805L82.75107272727273,136.327761746943L82.95725454545455,114.38441906124353L83.08096363636363,193.7105629220605L83.1118909090909,132.66551937907934L83.5654909090909,10.762266591191285L83.59641818181818,87.4215406924486L84.17888181818181,30.93419462442398L84.50361818181818,-2.286198586225536L84.58093636363635,111.17115706205367L84.75619090909092,112.8795353323221L85.62215454545453,19.49643209576606L86.26647272727273,28.2465325295925L86.52420000000001,111.48450370877981L86.6943,131.17918610572815L86.83862727272728,212.8751163231209L86.94171818181817,66.68712064623831L86.98810909090909,96.49695545434952L87.48294545454546,172.65212532132864L87.76644545454545,-36.22493840754032L88.01901818181818,75.25332100689411L88.52931818181818,50.15542279928922L88.54993636363636,-66.63583874702454L88.8385909090909,108.72799172997475L89.18394545454545,101.32527198642492L89.25610909090909,12.905437648296349L89.4519818181818,152.1120784431696L89.65816363636364,159.36644949018955L89.67878181818182,137.20403449609876L89.68909090909091,74.73993055522442L89.79733636363636,136.88750635832548L89.87980909090909,56.22270755469798L90.08083636363637,78.9889519661665L90.09114545454545,-96.614166200161L90.10145454545454,105.07493667304516L90.48289090909091,-25.165284276008606L90.72515454545454,8.368444591760623L91.2766909090909,164.0024259313941L92.27151818181818,24.207896143198013L92.29213636363636,-95.72115078568461L92.49316363636363,18.319840878248208L92.63749090909091,53.730088993906975L92.6581090909091,-161.31375938653946L93.75087272727272,54.67251367866992L94.3488,139.656249769032L94.58075454545454,150.70154048502445L94.78178181818183,-53.1204691529274L94.93641818181818,27.822421640157685L95.12713636363637,165.59012733399868L95.47249090909091,169.46784291416407L95.61681818181819,175.53810860030353L95.65805454545455,-117.31706805527212L95.9931,-94.7863968461752L96.09103636363636,80.7504539936781L96.11680909090909,108.40846892446278L96.91576363636364,16.079367846250534L97.15802727272727,134.17326040565968L97.50338181818182,200.32479901332408L97.83327272727273,190.70569682866335L97.9672909090909,5.150028467178331L98.17347272727272,156.74733506515622L98.84871818181817,103.38331755250692L98.90541818181818,90.25345236063004L98.9982,111.51868138462304L99.26623636363637,117.90512628853321L99.3023181818182,189.62196229025722L99.76107272727273,94.89089041948317L99.79715454545455,-99.68637660145762L100.02395454545454,56.1489563062787L100.09611818181818,120.50455283373594L100.69404545454545,81.10198952257633L100.91053636363637,79.14983980357647L101.14764545454545,-224.40429836511612L101.26104545454545,173.6520915850997L101.7765,142.4172400124371L102.15793636363635,45.302269756793976L102.32288181818181,121.55589550733566L102.38989090909091,158.71041394770145L102.41050909090909,130.42396936565638L102.70431818181818,-23.168956339359283L102.78163636363637,101.84645406901835L103.18884545454546,198.09993809089065L103.42595454545454,95.48841729760169L103.43110909090909,112.6720955222845L103.45172727272727,170.7526762597263L103.6579090909091,116.17401052266358L103.73007272727273,158.06410970166326L103.80223636363637,112.44885265827179L103.87955454545454,29.931502938270555L104.0445,53.44991996884346L104.11666363636364,0.42902544140814425L104.81252727272728,-1.3136184215545916L105.00324545454546,-57.621789947152166L105.25066363636364,61.262211352586746L105.44138181818181,50.287309065461145L105.47230909090908,144.05348800122738L105.61663636363637,79.22219537198542L106.23518181818183,150.05922546610236L106.3795090909091,87.72518351674078L106.76094545454545,130.50717717036605L106.81249090909091,111.07860259711742L107.00836363636363,63.48493617027998L107.17846363636365,82.75423288345337L107.31763636363635,18.236166015267365L107.59082727272727,147.87485986948013L107.8434,-13.961952030658722L108.41040000000001,133.97709593176842L108.63719999999999,138.37718047201633L108.84853636363636,210.42965897126123L109.19904545454546,26.151561886072145L109.2042,57.668104544281945L109.48769999999999,106.99230428785086L109.85882727272727,66.30573734641074L110.02892727272727,121.03433977812527L110.26603636363636,-15.659054964780807L110.36397272727272,128.40214554220438L110.44644545454545,-156.70792743563655L112.01342727272727,157.8674946539104L112.03404545454546,-3.3477286249399447L112.54434545454545,79.54987246543168L112.7092909090909,210.6759985536337L112.78145454545454,168.39068565517664L112.79691818181819,192.2646768949926L112.92062727272727,71.23253174126147L113.12680909090909,48.137610182166085L113.4103090909091,149.755346365273L113.48247272727272,153.82226450368762L113.67834545454545,55.69197550415992L113.79174545454545,141.44287953153253L114.01854545454546,130.81952376291156L114.04947272727273,109.02943663299082L114.05462727272727,127.49814052134751L114.1371,36.96556534618138L114.75564545454546,146.7143409512937L114.8071909090909,122.39864446222782L115.4308909090909,65.99661070853472L115.6216090909091,89.84981510788202L116.30200909090908,159.4994566962123L116.65767272727273,208.17856517154723L116.94632727272727,134.43213157355785L116.99271818181818,107.58177578449248L117.16797272727273,-6.355188265442848L117.35869090909091,91.82024054229258L117.89991818181818,48.93011465668677L117.94115454545455,105.19887745380402L117.96177272727272,120.88584821671246L118.2195,203.78296576440334L118.58031818181819,116.02554094046354L119.17824545454546,151.11610140651464L119.21948181818182,117.73982062935829L119.2401,153.68903750553727L119.26071818181818,135.1247570104897L119.62153636363637,91.5771834179759L119.97720000000001,153.70804402977228L120.26585454545454,32.79497675597666L120.64213636363637,163.30286605283618L120.76584545454546,198.23161143343896L120.96687272727272,140.08444329723716L121.03388181818181,111.2177200242877L121.08027272727273,-9.320469796657562L121.24521818181817,96.21961075812578L121.72974545454547,84.24618184566496L121.82252727272729,42.243576571345315L121.87922727272728,173.34938287734985L122.46169090909092,221.05387785326457L122.46684545454546,-102.62486547231674L122.49777272727272,61.50440029799938L122.51323636363637,48.031043969094746L122.5750909090909,172.03376214951277L122.65240909090909,183.5071145184338L123.21425454545454,85.94764765352011L123.66269999999999,123.08733012527227L124.27093636363637,-19.247535094618822L124.29155454545455,31.348920390009873L124.78639090909091,-287.81749218702316L125.14205454545454,152.24002493545413L125.3533909090909,156.72221831977367L125.65235454545456,142.82039372250438L125.80183636363637,-139.88877445459366L125.874,128.40266205370426L126.27605454545454,60.85552997887133L126.29151818181819,52.32012249529361L126.52347272727272,190.03983108326793L126.88944545454545,50.33314671367407L126.97191818181818,-109.29111674427989L127.08016363636364,97.38324522972107L128.04406363636363,108.91115549951792L128.14715454545455,-41.19610883295536L128.32240909090908,58.56162548065184L128.40488181818182,9.889010488986969L128.46158181818183,180.00758701004088L128.77085454545454,134.109405297786L128.79147272727272,84.97375972568989L128.85848181818182,162.63059886172414L128.9358,142.20620660111308L130.4667,73.2201449200511L130.72958181818183,135.02876279875636L130.89452727272726,30.786670148372643L130.94091818181818,-157.54472002387047L131.03885454545454,90.1765251159668L131.13163636363637,163.40900916606188L131.4048272727273,116.35588850826025L131.84296363636363,109.96854245662689L131.85842727272728,177.67758714966476L132.04914545454545,-13.840714693069485L132.19347272727273,134.30258059874177L132.28625454545454,20.771006643772118L132.29656363636363,105.50952065736054L132.78109090909092,175.42233309708536L133.1986090909091,1.1487127840518951L133.74499090909092,-706.0049837827682L133.7656090909091,20.133411660790443L133.85323636363637,108.65942757576703L133.87900909090908,135.79123267903924L133.90993636363638,170.48637611791492L134.0181818181818,29.97190073132515L134.20374545454544,1.073412001132965L134.28621818181819,130.1998638175428L134.68311818181817,116.34510770440102L135.07486363636363,83.63753348588943L135.0954818181818,84.16648522019386L135.2191909090909,134.949318934232L135.39444545454546,145.30820433050394L135.62124545454546,119.22159321606159L136.02845454545454,118.84869389235973L136.17793636363635,41.95855014026164L137.01812727272727,182.4411913845688L137.07482727272728,157.33902096748352L137.1006,87.9723947122693L137.1366818181818,-5.899009704589857L137.21915454545453,62.115960903465734L137.50265454545453,212.80245716683567L137.51296363636365,153.8622172176838L137.80161818181818,105.02581313252449L138.20367272727273,34.73657645285128L138.37377272727272,213.17755303811282L139.49746363636365,122.54836685955523L139.62117272727272,182.75559578090906L139.9252909090909,-117.63572268188003L140.00776363636362,75.1099945604801L140.3531181818182,36.566060185432434L140.5799181818182,138.04912423714995L140.64177272727272,113.16915541887283L140.75517272727274,151.7155734449625L141.12114545454546,151.6982483305037L141.13145454545455,173.97066928446293L141.32217272727272,165.60234228149056L141.82216363636365,65.6907919421792L142.79121818181818,135.1020964421332L143.06956363636365,127.32676859945057L143.1984272727273,160.4095664434135L143.92006363636364,98.5124822333455L144.05923636363636,117.92237997055052L144.62623636363637,144.85835578292608L144.69324545454546,129.0892706811428L144.8118,97.83639065921305L144.87365454545454,-55.38846015930176L145.67776363636364,114.86087344586849L145.86332727272728,75.19064728170633L146.0282727272727,139.5528046041727L146.4200181818182,109.43097487092018L146.42517272727272,187.1661863848567L146.90454545454546,39.19927977025509L147.3633,-34.08967986702919L147.3736090909091,156.38759579509497L147.65195454545454,136.75043849274516L147.6674181818182,90.05583725869656L149.84263636363636,134.72732339054346L150.61581818181816,184.58647519350052L151.43023636363637,-5.830786228179932L151.72404545454546,39.58100374788045L151.8993,74.24915671348572L151.9199181818182,42.567934803664684L152.01785454545455,70.0470169633627L152.6054727272727,69.08481098711489L153.11061818181818,130.84850884974003L153.18278181818184,-13.100718557834638L153.38896363636363,76.264518648386L153.74978181818182,165.37067588418722L153.8271,190.01562372781336L153.99204545454546,123.20833668112753L154.0281272727273,200.1815797155723L154.41987272727275,212.29989628540352L154.4301818181818,117.31929235160351L154.5899727272727,94.06079050153494L154.90955454545454,70.52817489951849L155.21367272727275,172.0865672081709L155.60026363636365,124.38971936702728L155.91984545454545,-111.17183402180672L156.68787272727275,112.76704572141169L156.92498181818183,39.24522731453179L157.04353636363635,169.35269381850958L157.79094545454547,169.90048173815012L157.98166363636363,105.9126853570342L158.04351818181817,118.11370901763439L158.17753636363636,-30.496737957000732L158.26000909090908,176.99204726144671L158.31155454545456,56.44822526723145L158.32186363636362,202.11654031649232L158.53835454545455,112.25119359791279L158.83216363636365,81.85431599617004L158.90948181818183,93.88536341488361L159.31153636363635,174.40877543762326L159.3630818181818,191.47950798273087L159.4249363636364,53.71498927474022L159.73936363636363,114.34845007956028L160.2909,106.16383083164692L160.3372909090909,184.64263757690787L160.37852727272727,140.2455234527588L160.41976363636365,192.16648750938475L160.57955454545456,201.0005650203675L161.14655454545453,86.06557711958885L161.28572727272729,129.18767711147666L161.35273636363635,173.34865206852555L161.36304545454547,184.35966070741415L161.73417272727272,82.30473600327969L161.96097272727272,16.909236982464783L162.6259090909091,71.88039101660252L162.81662727272726,187.62800810858607L162.8424,70.6514672935009L163.12074545454547,193.7071808706969L163.3630090909091,21.179951876401894L163.6722818181818,113.10693226754665L163.99186363636363,30.093511715531335L163.99701818181816,0.5266131460666525L164.50216363636363,177.71132249385118L164.7908181818182,152.68054330721498L165.0176181818182,151.5889072418213L165.09493636363635,139.41998422145844L165.24957272727275,110.79589497298002L165.48152727272728,140.95592457801104L165.57946363636364,123.62904079258442L165.66709090909092,150.54194942116737L166.53305454545455,90.23791305720806L166.83717272727273,94.55025658011435L167.22376363636363,87.48782999813557L167.23922727272728,82.5780914723873L167.2856181818182,69.55933120101689L167.63097272727273,63.52916933596133L167.71344545454545,129.6078976802528L168.17219999999998,109.18287351727484L168.30106363636364,128.67866601794958L169.02785454545457,140.4000263288617L169.19795454545454,37.62465599924326L169.23919090909092,120.74524719268084L169.5536181818182,146.877404730767L169.96082727272727,-17.85291008651258L170.1309272727273,148.27322211116552L170.33195454545455,137.52932684496045L170.62576363636362,144.40292451530695L171.1463727272727,148.64735776558518L171.24430909090907,162.9708700440824L171.9711,85.1986839994788L172.42985454545453,153.4198196232319L172.4710909090909,-50.3090201318264L172.7545909090909,190.191218405962L172.85252727272726,133.00188925117254L173.11540909090908,62.3346760496497L173.27004545454545,165.46943398192525L173.33705454545455,42.88921594619751L174.18239999999997,76.84367090463638L174.1927090909091,146.1467937193811L174.5019818181818,168.9579746313393L174.64630909090909,220.8213495874952L175.11021818181817,129.85624630004168L175.12052727272726,167.72009437903762L175.1720727272727,147.39421844482422L175.86793636363635,164.31777268648148L175.90401818181817,124.99622475355864L176.58957272727272,204.77127480320632L176.85245454545455,-66.73445947468282L177.07410000000002,106.99150204658507L177.3369818181818,196.30052466876805L177.47615454545453,57.82656367868185L177.78027272727275,64.67004433274269L178.16686363636364,114.29952435195446L178.45036363636365,79.11344222724438L178.53283636363636,-166.17903396487236L178.71324545454544,137.41447996348143L178.74417272727274,92.17989739030598L179.2957090909091,155.12687364593148L179.3317909090909,161.64449598640203L179.41941818181817,200.03722711466253L179.53797272727275,146.0360899195075L179.62560000000002,195.3350328002125L179.75961818181818,95.10180294513702L180.21837272727274,111.0228193551302L180.27507272727271,137.74595396593213L180.40393636363638,131.34539291262627L180.6925909090909,161.02333595976233L180.75444545454545,124.84455719590187L180.82145454545454,95.95940984785555L181.44,102.48675249516964L181.66164545454546,-22.489930540323257L181.71834545454547,-83.61684665083888L181.72865454545453,32.48939976096153L181.7492727272727,182.91446702554822L181.95545454545456,177.7396701835096L182.12555454545452,25.085284337401376L182.20802727272726,53.122330792248235L182.58946363636363,99.97077003121376L183.5739818181818,55.05536958575249L183.96572727272726,77.26862799376248L184.03273636363636,209.94642743375152L184.28015454545454,162.1307311207056L184.7956090909091,111.23556714504957L185.00694545454544,-17.29657225310805L185.14611818181817,159.42871659994125L185.27498181818183,191.5141307376325L185.32137272727272,106.19065646082161L185.3523,134.20742709189653L185.39353636363634,44.149745777249336L185.59456363636366,213.375336418394L186.17187272727273,29.52866792678833L186.65124545454546,110.42080871760845L186.82134545454548,119.34451196342707L187.18216363636364,198.21382612921298L187.30071818181818,188.07493891566992L187.50174545454544,64.10761825740337L187.67700000000002,53.53908963501452L187.98111818181818,166.5016327612102L188.69244545454544,142.7146846987307L188.80584545454548,44.9754498526454L188.96563636363638,85.32613046467304L189.15120000000002,50.50523295998572L189.17181818181817,64.23874624073505L189.21305454545455,27.69514001905918L189.53779090909092,54.317241683602326L189.55325454545454,207.38144368864596L190.09448181818183,178.41477818787098L190.21303636363635,165.43377820402384L190.2955090909091,159.0085015259683L190.36767272727275,182.20130750909448L190.47591818181817,178.03751599043608L190.59447272727272,91.37071069329976L190.68725454545452,146.40929695218801L190.79034545454547,124.61372051388025L191.6099181818182,215.00601748470217L191.7903272727273,17.589515596628182L192.02743636363638,-75.05073420703411L193.33153636363636,98.1751013174653L193.40370000000001,186.58256410621107L193.6511181818182,111.31708804517984L193.8933818181818,136.5629393234849L194.5634727272727,111.9182964414358L194.89851818181816,109.94205750524998L194.90367272727272,129.269950799644L194.9655272727273,145.8600309304893L194.97068181818182,97.10775777697563L195.3675818181818,69.62280716747046L195.69747272727273,179.4972296897322L195.9345818181818,-165.93286678195003L196.11499090909092,156.87499582767487L196.82631818181818,171.6598627716303L197.0325,43.05280722677708L197.31084545454544,164.51739888638258L197.89846363636366,6.536565124988543L197.97578181818182,144.50451793149114L198.00155454545455,113.19303583353756L198.06856363636362,204.9395325453952L198.1458818181818,124.73882619291544L199.48606363636364,154.3956856802106L199.5273,101.1041720956564L199.73863636363637,70.53365871310233L199.7437909090909,45.62603455036878L200.01182727272726,190.4846134223044L200.15099999999998,137.94888254255056L200.30048181818182,-27.410109192132964L200.32625454545453,125.4613598436117L200.33656363636362,66.44966822117567L200.43965454545454,159.51183648779988L201.13551818181818,112.62352146208286L201.48602727272728,61.17917388677596L201.57880909090912,60.50007116049528L202.04271818181817,157.64085050672293L202.44992727272728,123.83152429014444L202.4757,100.91567836701869L202.90352727272727,40.19417982548475L203.4189818181818,127.85180803388357L203.47568181818184,122.63916298747061L203.5993909090909,105.91400410979986L204.06845454545453,82.58925691246986L204.23855454545455,173.58104377985L204.4705090909091,-20.628664866089846L204.8467909090909,13.888655751943588L205.20760909090907,171.28790305927396L205.4344090909091,138.50813262164593L205.54780909090908,-719.869559109211L205.71275454545454,55.232774801552296L205.82615454545453,136.04436727240682L205.86223636363636,26.68721728026867L205.90862727272727,104.71702717244625L205.91893636363636,78.51105794310568L205.92924545454545,92.04139538109301L206.01171818181817,77.38122750073671L206.28490909090908,159.5420908741653L206.41892727272727,177.4144272878766L206.56840909090909,98.76067150384186L206.76943636363634,86.56676910817623L206.90345454545454,141.79497003555298L207.07355454545456,145.93342501670122L207.30035454545452,150.3778636083007L208.12508181818183,145.1619216799736L208.46012727272728,84.03914865106344L208.57352727272726,85.3095031902194L208.64053636363636,115.6961714476347L208.8931090909091,113.25786352157593L209.02197272727273,51.887263879179955L209.1663,153.73079251497984L209.21269090909092,130.89440144598484L209.45495454545454,122.49755091965199L209.54773636363637,106.32369663566351L209.8106181818182,147.5740578584373L210.1198909090909,42.758175879716866L210.55802727272726,168.5824103280902L210.68689090909092,202.46550565119833L210.88791818181818,182.0742896385491L211.06832727272726,163.73926881700754L211.33636363636364,123.92910100519656L211.3776,149.16355606168509L211.97037272727272,129.9502788670361L212.06830909090908,115.4947979003191L212.29510909090908,157.08733150735497L212.68685454545454,143.29837566241622L212.73324545454545,66.12870577722788L213.62498181818182,105.64358286559582L213.9187909090909,151.66166393086314L214.05796363636364,191.66440811008215L214.40847272727274,49.37477611005306L214.46001818181819,169.9939813092351L214.49094545454545,-21.45446784794333L214.58888181818185,101.6706533357501L214.87238181818182,155.5228511430323L214.91361818181818,6.6580881923436985L215.09918181818182,182.7951748482883L215.7898909090909,150.61603035777807L215.9032909090909,156.739241220057L215.9136,54.853897131979465L215.92906363636365,76.03417649865149L215.9909181818182,137.16038927435875L216.06308181818184,174.8511015996337L216.16617272727274,102.45260778814554L216.19194545454545,170.50287701189518L216.2074090909091,115.25047697126865L216.4702909090909,170.0717767328024L216.82595454545455,139.68541618436575L216.89811818181818,132.45520578697324L216.93935454545453,204.0247508417815L217.08883636363635,104.7183459252119L217.3774909090909,220.40420692414045L217.42903636363638,144.72822785377502L217.54243636363637,54.51872512698172L218.3826272727273,208.07720665819943L219.05787272727272,137.11444173008204L219.19704545454545,98.57524387538433L219.20735454545454,149.1076354496181L219.39807272727273,133.78628339618444L219.44961818181818,172.0294157601893L219.64033636363635,180.10126241482794L219.8259,169.32846173644066L219.9650727272727,122.34332278370857L220.35166363636364,176.1186208203435L220.63000909090908,124.84398573637007L220.65578181818182,124.16148722171783L221.3207181818182,133.39276757091284L221.4805090909091,175.4359821882099L221.5475181818182,214.5896425913088L221.89802727272726,108.41418351978064L221.9341090909091,133.44332525506616L222.55265454545454,122.6647687703371L223.6351090909091,194.76874387823045L223.64026363636364,10.55456303060054L223.71242727272727,192.17043552547693L223.7485090909091,161.48253666236997L223.93407272727273,178.21985279209912L224.1557181818182,148.83396128192544L224.31550909090907,129.51416183263063L224.54746363636363,159.40791876986623L225.37734545454546,177.98076016828418L225.79486363636363,115.91354586184025L225.97011818181818,175.38774605840445L226.18145454545456,191.75473992712796L226.27423636363636,50.97067575901746L226.33093636363637,112.56694696843624L226.92886363636362,152.77313623577356L227.03195454545457,117.38754879683256L227.21236363636362,129.02789372950792L227.39277272727273,197.84625126980245L227.85152727272728,147.17055797576904L228.02162727272727,125.34590303897856L228.02678181818183,93.11259627342224L228.85666363636363,175.60437592677772L229.12470000000002,119.57178801298141L229.25871818181818,129.2674231901765L229.64015454545455,179.58100345917046L229.83087272727275,113.55871498584747L229.89788181818182,133.98614037781954L230.38240909090908,140.83061009645462L230.47003636363635,173.96360846236348L230.5215818181818,200.75793649069965L230.53704545454548,160.03273833543062L230.98033636363635,21.709453091025352L231.4751727272727,128.3749023079872L231.69166363636364,188.36408644914627L231.92877272727273,145.68957664072514L231.9700090909091,171.24756021425128L232.1091818181818,140.60908710584044L232.21227272727273,200.0993403699249L232.52154545454547,13.833663761615753L232.85143636363637,131.70723669230938L232.85659090909093,200.50251331180334L232.9545272727273,167.28813141584396L233.16586363636364,100.42622327804564L233.17101818181817,167.09951680153608L233.2380272727273,69.2608205229044L233.42359090909093,154.6959876641631L233.63492727272728,176.20925210416317L233.66585454545455,188.14359373413026L233.8514181818182,94.48504425585269L234.09883636363637,104.8443417623639L234.64521818181817,189.88344348967075L234.738,48.03874768316746L235.0111909090909,119.27737645804882L235.13490000000002,165.11358503252268L236.0421,40.34511107951403L236.08333636363636,198.53673098608851L236.33075454545454,147.74514954537153L236.5060090909091,87.23865166306496L236.70188181818182,214.38380451640114L236.81012727272727,51.94673962891102L237.1761,131.05756962671876L237.33073636363636,180.04376204684377L237.46990909090908,192.1194877102971L237.4853727272727,164.85708761960268L237.5059909090909,71.03591669350863L237.78949090909092,85.81105783581734L237.79464545454545,100.41387096047401L237.94412727272726,180.77810402959585L238.46473636363635,133.98393696174026L238.4802,162.8935801424086L238.60906363636363,159.41729839891195L238.87194545454545,198.04400923661888L239.0368909090909,186.931794565171L239.12967272727272,59.83015574514865L239.54719090909092,42.43193842470646L239.81007272727274,146.06797076761723L239.84099999999998,-262.53546312451357L239.87192727272728,123.41177627444267L239.8977,131.99525779113173L240.02656363636362,174.21645183116198L240.06264545454545,53.31849526613949L240.13996363636366,103.19274678826332L240.15027272727272,106.37360043823718L240.25336363636364,48.44235196709633L240.48016363636364,14.801034852862358L240.5317090909091,80.73590375483036L240.55232727272727,153.42653427273035L241.0884,136.4536476880312L241.81003636363636,184.65777026489377L242.2791,198.7759609799832L242.32549090909092,37.468164004385464L242.43373636363637,95.9790812432766L242.52651818181818,167.90005467832088L242.53167272727273,67.07973532378674L242.72754545454544,161.2001477368176L242.8254818181818,57.51809641718863L242.87187272727272,142.88025410845876L242.92341818181816,202.57798289880157L242.93888181818184,184.64691802859306L244.14504545454545,35.67449539899825L244.1605090909091,136.64864176884294L244.4800909090909,186.97243687696755L244.6141090909091,81.15505833178757L244.63988181818183,199.63479047641158L245.0213181818182,167.06206971779466L245.86666363636365,185.32186118885875L245.98006363636364,33.17926131188868L246.22232727272726,177.2576578054577L246.62438181818183,172.23049258813262L246.67077272727275,151.62897534668446L246.70685454545455,205.84630419965833L246.74293636363635,203.5887574404478L246.83571818181818,100.20066160708666L246.90272727272725,142.2047339938581L247.1656090909091,154.4492270424962L247.27900909090908,51.37706041336058L248.12950909090907,129.96893372386694L248.37692727272727,166.03762410581112L248.41300909090907,192.34945071861148L248.60888181818183,157.09923325106502L248.62434545454545,197.66677451319993L248.94392727272728,149.443505294621L249.3562909090909,139.8899107798934L249.9542181818182,186.0332074202597L250.01607272727273,123.09191279113293L250.2738,138.7125612795353L250.45936363636363,181.52168277651072L250.5676090909091,149.52437780797482L250.8975,184.41202068701386L251.33048181818182,55.7895851880312L251.42326363636363,189.32389669120312L251.9541818181818,215.8047880954109L252.05211818181817,160.5763996578753L252.11912727272727,38.23626056313515L252.35108181818183,60.79796642065047L253.3459090909091,131.94298572838306L253.35621818181818,159.26485057920218L253.50054545454546,157.672654427588L253.88713636363636,159.1956490278244L253.90259999999998,15.225189700722687L254.03146363636364,186.3670606724918L254.37166363636362,145.43215610086918L254.44382727272728,171.1102505773306L254.70155454545454,26.489250510931008L254.82526363636364,109.85973436385393L254.95928181818184,154.62819827720523L255.00567272727272,150.8699177391827L255.05206363636364,143.12844337895513L255.06752727272726,151.18707777932286L255.2634,114.6443562209606L255.78916363636364,155.57034272700548L255.99019090909093,142.268797904253L256.2376090909091,165.79496260732412L256.30461818181817,98.96377041935921L256.33554545454547,173.1873081624508L256.3407,183.19024570286274L256.4541,150.9600929543376L256.49533636363634,133.6391655355692L256.77368181818184,195.87518294341862L257.1551181818182,61.16873376071452" style="fill: none;" fill="none"></path></g></g></g></g></g></g><g transform="translate(46, 177)" clip-path="url(#clip_1)"><clipPath id="clip_1"><rect width="283" height="23"></rect></clipPath><g><g><line x1="0" y1="0" x2="0" y2="5" style="visibility: inherit;" fill="rgb(0, 0, 0)" stroke="rgb(204, 204, 204)" stroke-width="1px"></line><line x1="25.772727272727273" y1="0" x2="25.772727272727273" y2="5" style="visibility: inherit;" fill="rgb(0, 0, 0)" stroke="rgb(204, 204, 204)" stroke-width="1px"></line><line x1="51.54545454545455" y1="0" x2="51.54545454545455" y2="5" style="visibility: inherit;" fill="rgb(0, 0, 0)" stroke="rgb(204, 204, 204)" stroke-width="1px"></line><line x1="77.31818181818181" y1="0" x2="77.31818181818181" y2="5" style="visibility: inherit;" fill="rgb(0, 0, 0)" stroke="rgb(204, 204, 204)" stroke-width="1px"></line><line x1="103.0909090909091" y1="0" x2="103.0909090909091" y2="5" style="visibility: inherit;" fill="rgb(0, 0, 0)" stroke="rgb(204, 204, 204)" stroke-width="1px"></line><line x1="128.86363636363635" y1="0" x2="128.86363636363635" y2="5" style="visibility: inherit;" fill="rgb(0, 0, 0)" stroke="rgb(204, 204, 204)" stroke-width="1px"></line><line x1="154.63636363636363" y1="0" x2="154.63636363636363" y2="5" style="visibility: inherit;" fill="rgb(0, 0, 0)" stroke="rgb(204, 204, 204)" stroke-width="1px"></line><line x1="180.4090909090909" y1="0" x2="180.4090909090909" y2="5" style="visibility: inherit;" fill="rgb(0, 0, 0)" stroke="rgb(204, 204, 204)" stroke-width="1px"></line><line x1="206.1818181818182" y1="0" x2="206.1818181818182" y2="5" style="visibility: inherit;" fill="rgb(0, 0, 0)" stroke="rgb(204, 204, 204)" stroke-width="1px"></line><line x1="231.95454545454547" y1="0" x2="231.95454545454547" y2="5" style="visibility: inherit;" fill="rgb(0, 0, 0)" stroke="rgb(204, 204, 204)" stroke-width="1px"></line><line x1="257.7272727272727" y1="0" x2="257.7272727272727" y2="5" style="visibility: inherit;" fill="rgb(0, 0, 0)" stroke="rgb(204, 204, 204)" stroke-width="1px"></line><line x1="283.5" y1="0" x2="283.5" y2="5" style="visibility: inherit;" fill="rgb(0, 0, 0)" stroke="rgb(204, 204, 204)" stroke-width="1px"></line></g><g transform="translate(0, 8)"><text x="0" y="0" dx="0em" dy="0.95em" style="text-anchor: middle; visibility: hidden; font-family: Roboto, sans-serif; font-size: 12px; font-weight: 200;" fill="rgb(50, 49, 63)" stroke="none" stroke-width="1px">-5k</text><text x="25.772727272727273" y="0" dx="0em" dy="0.95em" style="text-anchor: middle; visibility: inherit; font-family: Roboto, sans-serif; font-size: 12px; font-weight: 200;" fill="rgb(50, 49, 63)" stroke="none" stroke-width="1px">0</text><text x="51.54545454545455" y="0" dx="0em" dy="0.95em" style="text-anchor: middle; visibility: inherit; font-family: Roboto, sans-serif; font-size: 12px; font-weight: 200;" fill="rgb(50, 49, 63)" stroke="none" stroke-width="1px">5k</text><text x="77.31818181818181" y="0" dx="0em" dy="0.95em" style="text-anchor: middle; visibility: inherit; font-family: Roboto, sans-serif; font-size: 12px; font-weight: 200;" fill="rgb(50, 49, 63)" stroke="none" stroke-width="1px">10k</text><text x="103.0909090909091" y="0" dx="0em" dy="0.95em" style="text-anchor: middle; visibility: inherit; font-family: Roboto, sans-serif; font-size: 12px; font-weight: 200;" fill="rgb(50, 49, 63)" stroke="none" stroke-width="1px">15k</text><text x="128.86363636363635" y="0" dx="0em" dy="0.95em" style="text-anchor: middle; visibility: inherit; font-family: Roboto, sans-serif; font-size: 12px; font-weight: 200;" fill="rgb(50, 49, 63)" stroke="none" stroke-width="1px">20k</text><text x="154.63636363636363" y="0" dx="0em" dy="0.95em" style="text-anchor: middle; visibility: inherit; font-family: Roboto, sans-serif; font-size: 12px; font-weight: 200;" fill="rgb(50, 49, 63)" stroke="none" stroke-width="1px">25k</text><text x="180.4090909090909" y="0" dx="0em" dy="0.95em" style="text-anchor: middle; visibility: inherit; font-family: Roboto, sans-serif; font-size: 12px; font-weight: 200;" fill="rgb(50, 49, 63)" stroke="none" stroke-width="1px">30k</text><text x="206.1818181818182" y="0" dx="0em" dy="0.95em" style="text-anchor: middle; visibility: inherit; font-family: Roboto, sans-serif; font-size: 12px; font-weight: 200;" fill="rgb(50, 49, 63)" stroke="none" stroke-width="1px">35k</text><text x="231.95454545454547" y="0" dx="0em" dy="0.95em" style="text-anchor: middle; visibility: inherit; font-family: Roboto, sans-serif; font-size: 12px; font-weight: 200;" fill="rgb(50, 49, 63)" stroke="none" stroke-width="1px">40k</text><text x="257.7272727272727" y="0" dx="0em" dy="0.95em" style="text-anchor: middle; visibility: inherit; font-family: Roboto, sans-serif; font-size: 12px; font-weight: 200;" fill="rgb(50, 49, 63)" stroke="none" stroke-width="1px">45k</text><text x="283.5" y="0" dx="0em" dy="0.95em" style="text-anchor: middle; visibility: hidden; font-family: Roboto, sans-serif; font-size: 12px; font-weight: 200;" fill="rgb(50, 49, 63)" stroke="none" stroke-width="1px">50k</text></g><line x1="0" y1="0" x2="283.5" y2="0" fill="rgb(0, 0, 0)" stroke="rgb(204, 204, 204)" stroke-width="1px"></line></g></g></g></g></svg>