<svg viewBox="0 0 1273 400" xmlns="http://www.w3.org/2000/svg"><g><g><g><g><g><line x1="46.5" y1="361.67403887782785" x2="41.5" y2="361.67403887782785" style="visibility: inherit;" fill="rgb(0, 0, 0)" stroke="rgb(204, 204, 204)" stroke-width="1px"></line><line x1="46.5" y1="314.26713613990574" x2="41.5" y2="314.26713613990574" style="visibility: inherit;" fill="rgb(0, 0, 0)" stroke="rgb(204, 204, 204)" stroke-width="1px"></line><line x1="46.5" y1="266.86023340198363" x2="41.5" y2="266.86023340198363" style="visibility: inherit;" fill="rgb(0, 0, 0)" stroke="rgb(204, 204, 204)" stroke-width="1px"></line><line x1="46.5" y1="219.45333066406153" x2="41.5" y2="219.45333066406153" style="visibility: inherit;" fill="rgb(0, 0, 0)" stroke="rgb(204, 204, 204)" stroke-width="1px"></line><line x1="46.5" y1="172.0464279261394" x2="41.5" y2="172.0464279261394" style="visibility: inherit;" fill="rgb(0, 0, 0)" stroke="rgb(204, 204, 204)" stroke-width="1px"></line><line x1="46.5" y1="124.63952518821732" x2="41.5" y2="124.63952518821732" style="visibility: inherit;" fill="rgb(0, 0, 0)" stroke="rgb(204, 204, 204)" stroke-width="1px"></line><line x1="46.5" y1="77.23262245029518" x2="41.5" y2="77.23262245029518" style="visibility: inherit;" fill="rgb(0, 0, 0)" stroke="rgb(204, 204, 204)" stroke-width="1px"></line><line x1="46.5" y1="29.825719712373058" x2="41.5" y2="29.825719712373058" style="visibility: inherit;" fill="rgb(0, 0, 0)" stroke="rgb(204, 204, 204)" stroke-width="1px"></line></g><g transform="translate(36.5, 0)"><text x="0" y="361.67403887782785" dx="0em" dy="0.3em" style="text-anchor: end; visibility: inherit; font-family: Roboto, sans-serif; font-size: 12px; font-weight: 200;" fill="rgb(50, 49, 63)" stroke="none" stroke-width="1px">0.05</text><text x="0" y="314.26713613990574" dx="0em" dy="0.3em" style="text-anchor: end; visibility: inherit; font-family: Roboto, sans-serif; font-size: 12px; font-weight: 200;" fill="rgb(50, 49, 63)" stroke="none" stroke-width="1px">0.1</text><text x="0" y="266.86023340198363" dx="0em" dy="0.3em" style="text-anchor: end; visibility: inherit; font-family: Roboto, sans-serif; font-size: 12px; font-weight: 200;" fill="rgb(50, 49, 63)" stroke="none" stroke-width="1px">0.15</text><text x="0" y="219.45333066406153" dx="0em" dy="0.3em" style="text-anchor: end; visibility: inherit; font-family: Roboto, sans-serif; font-size: 12px; font-weight: 200;" fill="rgb(50, 49, 63)" stroke="none" stroke-width="1px">0.2</text><text x="0" y="172.0464279261394" dx="0em" dy="0.3em" style="text-anchor: end; visibility: inherit; font-family: Roboto, sans-serif; font-size: 12px; font-weight: 200;" fill="rgb(50, 49, 63)" stroke="none" stroke-width="1px">0.25</text><text x="0" y="124.63952518821732" dx="0em" dy="0.3em" style="text-anchor: end; visibility: inherit; font-family: Roboto, sans-serif; font-size: 12px; font-weight: 200;" fill="rgb(50, 49, 63)" stroke="none" stroke-width="1px">0.3</text><text x="0" y="77.23262245029518" dx="0em" dy="0.3em" style="text-anchor: end; visibility: inherit; font-family: Roboto, sans-serif; font-size: 12px; font-weight: 200;" fill="rgb(50, 49, 63)" stroke="none" stroke-width="1px">0.35</text><text x="0" y="29.825719712373058" dx="0em" dy="0.3em" style="text-anchor: end; visibility: inherit; font-family: Roboto, sans-serif; font-size: 12px; font-weight: 200;" fill="rgb(50, 49, 63)" stroke="none" stroke-width="1px">0.4</text></g><line x1="46.5" y1="0" x2="46.5" y2="377" fill="rgb(0, 0, 0)" stroke="rgb(204, 204, 204)" stroke-width="1px"></line></g></g><g transform="translate(46, 0)" clip-path="url(#clip_0)"><clipPath id="clip_0"><rect width="1226" height="377"></rect></clipPath><g><g><g><line x1="32.05424815367121" y1="0" x2="32.05424815367121" y2="377" fill="rgb(0, 0, 0)" stroke="rgb(60, 60, 60)" stroke-width="1px" opacity="0.25"></line><line x1="201.21824974165" y1="0" x2="201.21824974165" y2="377" fill="rgb(0, 0, 0)" stroke="rgb(60, 60, 60)" stroke-width="1px" opacity="0.25"></line><line x1="370.38225132962884" y1="0" x2="370.38225132962884" y2="377" fill="rgb(0, 0, 0)" stroke="rgb(60, 60, 60)" stroke-width="1px" opacity="0.25"></line><line x1="539.5462529176076" y1="0" x2="539.5462529176076" y2="377" fill="rgb(0, 0, 0)" stroke="rgb(60, 60, 60)" stroke-width="1px" opacity="0.25"></line><line x1="708.7102545055865" y1="0" x2="708.7102545055865" y2="377" fill="rgb(0, 0, 0)" stroke="rgb(60, 60, 60)" stroke-width="1px" opacity="0.25"></line><line x1="877.8742560935651" y1="0" x2="877.8742560935651" y2="377" fill="rgb(0, 0, 0)" stroke="rgb(60, 60, 60)" stroke-width="1px" opacity="0.25"></line><line x1="1047.038257681544" y1="0" x2="1047.038257681544" y2="377" fill="rgb(0, 0, 0)" stroke="rgb(60, 60, 60)" stroke-width="1px" opacity="0.25"></line><line x1="1216.202259269523" y1="0" x2="1216.202259269523" y2="377" fill="rgb(0, 0, 0)" stroke="rgb(60, 60, 60)" stroke-width="1px" opacity="0.25"></line></g><g><line x1="0" y1="361.67403887782785" x2="1226.5" y2="361.67403887782785" fill="rgb(0, 0, 0)" stroke="rgb(60, 60, 60)" stroke-width="1px" opacity="0.25"></line><line x1="0" y1="314.26713613990574" x2="1226.5" y2="314.26713613990574" fill="rgb(0, 0, 0)" stroke="rgb(60, 60, 60)" stroke-width="1px" opacity="0.25"></line><line x1="0" y1="266.86023340198363" x2="1226.5" y2="266.86023340198363" fill="rgb(0, 0, 0)" stroke="rgb(60, 60, 60)" stroke-width="1px" opacity="0.25"></line><line x1="0" y1="219.45333066406153" x2="1226.5" y2="219.45333066406153" fill="rgb(0, 0, 0)" stroke="rgb(60, 60, 60)" stroke-width="1px" opacity="0.25"></line><line x1="0" y1="172.0464279261394" x2="1226.5" y2="172.0464279261394" fill="rgb(0, 0, 0)" stroke="rgb(60, 60, 60)" stroke-width="1px" opacity="0.25"></line><line x1="0" y1="124.63952518821732" x2="1226.5" y2="124.63952518821732" fill="rgb(0, 0, 0)" stroke="rgb(60, 60, 60)" stroke-width="1px" opacity="0.25"></line><line x1="0" y1="77.23262245029518" x2="1226.5" y2="77.23262245029518" fill="rgb(0, 0, 0)" stroke="rgb(60, 60, 60)" stroke-width="1px" opacity="0.25"></line><line x1="0" y1="29.825719712373058" x2="1226.5" y2="29.825719712373058" fill="rgb(0, 0, 0)" stroke="rgb(60, 60, 60)" stroke-width="1px" opacity="0.25"></line></g></g></g><g><g><line x1="0" y1="409.08094161575" x2="1226.5" y2="409.08094161575" fill="rgb(0, 0, 0)" stroke="rgb(153, 153, 153)" stroke-width="1.5px"></line></g></g><g><g><line x1="32.05424815367121" y1="0" x2="32.05424815367121" y2="377" fill="rgb(0, 0, 0)" stroke="rgb(153, 153, 153)" stroke-width="1.5px"></line></g></g><g><g><g><g><g><path stroke="rgb(255, 112, 67)" stroke-width="2px" d="M33.50905856732783,112.18658135791642L34.11804897304455,188.00199009354978L35.98731119059171,176.04624594207226L36.367930194164664,183.69539132438433L36.75700739781702,174.784381362172L37.61974380591571,147.50281441658646L38.85464101750796,171.51404489176292L40.73236143513452,171.0015384468001L41.62893064355081,177.78013641089942L42.068757047679554,189.20897324753142L42.80462045458726,196.58238792741616L44.38630386943486,166.63538732872468L44.690799072293224,160.95424428918653L44.82613027356361,168.83100697548963L45.14754187658077,170.19550238992346L45.291331277930546,190.20168116735633L48.463156307705155,152.2245182104034L48.63232030929313,144.44112626594514L53.22512295240676,147.85231585038807L53.85102975828228,143.57509228323562L54.832180967492555,151.72597338536633L54.95905396868354,162.68954242545357L55.035177769398125,171.90775132083382L58.130878998458144,148.9374779319385L59.46727461100318,158.45514977863814L59.67027141290875,159.62767157925867L62.216189636807826,146.27030103267114L62.50376843950739,143.82216172629538L62.96051124379494,156.7021756464415L66.08158707309315,130.3898516547229L66.80899227992145,133.622033755768L66.91049068087423,144.20584391946406L67.41798268563818,132.73216622259386L67.80705988929053,134.08334022907053L68.66133809730982,140.8901301874345L70.65747331604797,152.23313817621403L72.9242709373269,155.79759689284148L75.1064865578118,162.94066761841094L75.49556376146417,151.95031314429528L75.9269319655135,155.738061655739L76.0368885665457,177.839688605842L76.56129697146844,184.57425089247L76.84041757408859,199.7422525246757L77.40711697940833,198.6607952982332L78.18527138671303,198.33314701413036L79.98686800362499,169.41569109902946L81.38247101672583,181.5806872394992L81.67004981942539,175.34295656457942L82.64274282855627,180.6362836227092L82.77807402982666,188.22000079965653L83.25173323427299,152.00893738634332L83.97068024102191,156.73230678707625L84.7065436479296,162.873149547116L85.16328645221715,151.07515784206188L85.6284874565841,164.7083121736727L85.92452445936306,174.73951934604403L87.61616447524284,178.6880126389967L88.97793468802607,168.50731658012802L89.14709868961405,164.205762614734L89.99291869755395,175.25980862367064L90.57653450303248,184.69283616567142L91.1855249087492,186.32361032108625L91.71839151375134,160.74737625327822L93.40157332955171,160.02384176753424L94.94942394408172,171.5169560956731L95.18625354630491,184.46600693143148L96.7087295605967,194.04919546899526L97.43613476742502,204.8845959727922L99.60143398775115,204.81332318323564L100.75174919854939,212.96359388260518L102.18118501196781,210.5576470897897L104.35494243237335,196.45211337108583L104.40569163284974,189.4706041714696L104.94701643793128,195.8335569357918L105.29380264118663,187.6994622559677L105.5898396439656,191.96677133371804L105.84358564634758,178.3874370238466L106.08041524857073,187.9744913953206L106.28341205047631,204.31339461067162L106.3003284506351,180.40296636438978L109.46369528033031,190.33659756499756L110.3095152882702,203.29358952832024L110.63938509136676,212.9532952236422L110.94388029422512,211.73741660113356L111.21454269676589,221.2050205341802L112.8046843116929,225.55104613039867L114.20028732479372,225.7471042734345L114.54707352804907,216.6865101487646L115.25756233471859,222.8051458216267L115.51130833710056,216.60555774445274L115.73967973924434,200.08362897845848L115.9342183410705,213.0300793261301L116.20488074361127,216.30570370295683L116.40787754551683,210.12978899471324L116.45862674599324,205.54425474830714L117.16911555266273,223.48134582378353L117.39748695480651,229.58000927939435L117.65969115726789,236.92860025722362L118.2517651628258,248.8901223382203L120.40014798299313,264.12877238489557L121.01759658878926,249.3144243372147L122.07487159871414,247.3955309781013L122.09178799887292,249.62482290684332L122.61619640379566,246.83438209120604L125.28898762888574,246.03541093807038L126.09251663642863,238.04357957582084L126.93833664436852,234.5343105423255L132.0217148920873,235.35902129219642L132.42770849589843,234.93577773916977L133.78102050860227,248.20537471795208L134.19547231249283,255.95180274002936L136.22544033154855,236.8251888150329L136.5468519345657,244.31755150584368L136.91901273805928,245.0979846496261L137.5787523442524,238.23923062681237L139.54105476267293,242.2452991846651L141.20732017831452,236.12442040039224L141.53718998141107,235.63100980142943L144.5821420099947,243.04195157027021L145.29263081666423,238.2552016022388L146.42602962730368,245.4908800018851L146.66285922952684,253.55648129621343L147.280307835323,241.034313362018L147.44101363683157,230.1691150537144L147.48330463722854,207.9233817228709L148.79432564953538,207.61223004393608L149.19186105326713,209.89866751464558L150.2237614629538,216.506818232257L150.85812646890872,225.66219338596454L152.05919088018337,221.48507574412352L152.7104722862971,207.0169876139204L153.5224594939194,213.47023488912563L155.9245883164687,188.5615860592986L156.77040832440858,183.19010635330974L157.66697753282486,173.72380425419925L157.77693413385705,163.698891748742L159.47703234981626,160.73313242454412L159.51932335021323,154.22417907488503L159.97606615450076,175.9246721226435L160.49201635934412,191.2329762478464L162.06524157411232,204.1644120673893L164.08675139308866,210.53377295099682L164.32358099531183,217.15641980166487L169.4238756431894,228.65218490429916L170.70106385517863,228.0288377461734L174.43958829027295,234.64567905920472L174.71025069281373,242.8874652311988L174.8540400941635,230.7380464132115L175.05703689606906,227.73163275468704L175.39536489924507,238.57744571830622L176.85863351298104,245.6076538652398L176.91784091353688,248.8373875205948L180.60561614815478,249.06344272006544L182.0265937614938,251.5805595713938L184.34414058324913,255.5204267363346L185.3252917924594,244.99713463004954L185.3929573930946,238.4846502362387L185.4267901934122,237.97410641533398L185.46062299372977,233.7439586579531L187.7274206150087,244.662988437921L188.370243821043,246.90657808788632L190.72162344311593,247.0940783732694L190.77237264359232,251.07095246526427L191.0261186459743,253.15128983260055L191.94806245462877,252.39408272709431L193.68199347090555,251.33902558748585L193.71582627122316,250.8378135996984L194.52781347884547,255.2881618298948L195.45821548757934,245.40085781128099L195.94879109218445,241.56876293732924L196.99760790202996,243.20056091385393L197.3782269056029,229.54205053628073L197.9787591112402,238.63490347612625L199.87339592902558,247.5730426911951L201.2097915415706,241.5747548448631L206.1070893875426,247.89458771830772L206.44541739071855,245.0459575871137L206.6822469929417,224.7487769565022L207.6464818019932,234.33700348841307L208.33159600842453,244.9123838183319L209.40578741850817,241.61628076082707L209.98094502390734,240.5883866445673L210.1162762251777,242.2911819687765L210.76755763129142,238.521754488205L211.93478924224848,226.9345946307475L212.306950045742,189.0049882086235L215.39419307472264,190.7469021771121L218.66751650545004,188.97567130902976L219.50487831331054,194.4344200723494L220.73131732482335,201.6185899842851L224.07230635618595,195.49812200963643L227.19338218548415,204.44897607271085L227.4894191882631,207.93531727141985L230.0268792120828,204.54281250842098L230.0353374121622,200.78743816883994L230.82195001954628,210.8596926958947L231.5747298266128,221.75647327295053L238.24824968925859,216.6479263431354L239.0179458964839,219.10507708770723L239.05177869680145,213.52376541891738L241.00562291514265,222.0742028278028L241.1240377162542,233.367914084723L241.46236571943015,243.60964653415124L242.05443972498807,236.47588483208315L242.18131272617907,231.10397322458863L242.98484173372196,230.9673443590857L243.43312633793013,237.422010635304L243.95753474285283,227.58768196938286L244.4565685475374,214.95737976601458L245.61534195841503,224.13810060223247L247.26469097389784,219.63905568849037L248.9986219901746,231.48795747097103L249.45536479446216,224.251989405246L249.55686319541496,227.13252917825702L251.36691801240633,235.3247995530771L254.1919568389256,238.71528058807823L254.53028484210154,244.30549750575688L255.15619164797707,243.16323606625252L257.43144746933535,244.43155626218785L257.8289828730671,249.58489765222174L258.8693414828332,249.708924195213L260.5440650985542,259.3644199136509L260.6709380997452,266.57040669427994L261.3053031057001,263.10241957501313L263.0307759218975,251.47052871770657L264.2656731334897,233.00425798141396L264.83237253880947,239.3937353060933L265.72048354714633,246.8586344710564L267.12454476032656,253.79917400227257L267.4713309635819,247.7401352754083L267.9872811684252,245.60047053251392L268.93459957731795,244.82860700410995L269.2644693804145,244.10906391849056L269.74658678494023,235.8005453882728L275.5996612398843,211.40059837130752L277.1052208540173,199.39746223905402L277.2067192549701,200.89375681443744L279.5327242768048,211.74249925288535L279.96409248085416,222.69810362719426L281.48656849514595,228.24482062221327L282.12093350110086,228.81474214236567L282.58613450546784,234.30950572874366L282.72146570673823,235.5071471016297L283.06825190999353,239.7076641298988L283.97327931848923,224.6844194803692L284.370814722221,220.92377306499696L284.51460412357073,227.0516988719826L284.7345173256351,227.19604277179533L286.2654515400063,224.00811792067094L286.36694994095916,208.95194589866477L286.47690654199135,212.46286541416026L288.3377105594591,211.47024706154667L288.6168311620793,200.59107873229476L291.74636519145685,211.73338929681523L293.34496500646327,194.13448412035962L293.573336408607,205.51747747986585L293.911664411783,204.61592630176364L293.9793300124182,219.13362205397587L294.3091998155147,210.06244998582952L296.3222514344117,187.9584585699767L297.43873384489234,167.9437693137278L297.7263126475919,176.81821576736778L299.3925780632335,179.29995029935563L299.8408626674417,187.52715784350838L301.8877470866562,189.86174270835886L302.0230782879266,188.22346995446233L302.31911529070555,194.58423882744137L302.51365389253175,207.0578524526417L302.8350654955489,208.65815489691812L307.0049581346925,215.9405370328568L309.5762509588298,215.54466474509601L309.686207559862,216.2609565881417L309.6946657599414,206.30992154155956L310.34594716605517,212.8291111074485L311.27634917478906,198.3340213988082L313.53468859598854,208.43333516754134L314.625796406231,219.76628102819072L317.10404902949494,222.87465582458196L317.9667854375936,220.42921317975527L318.482735642437,221.66187595346952L323.5576556900763,234.33285393614588L327.6767991287436,244.1429550281686L327.81213033001393,234.43451006212229L329.27539894374996,244.1349833141476L329.92668034986366,245.70175389122363L331.2799923625675,244.3041824052521L332.1258123705074,250.94814959085554L332.75171917638295,244.58424133245185L332.98854877860606,241.7638355914342L334.045823788531,233.32406800846235L335.81358760512535,243.3450129419805L336.1096246079043,244.01200464859687L340.7870092518119,253.5970576131278L342.4194418671359,250.36928916228743L344.0603326825393,244.45845548652989L344.0857072827775,247.93658769656355L344.18720568373027,248.3981615858425L344.9738182911144,229.53531493339173L345.5574340965929,225.47423096029766L345.67584889770455,238.35500009707548L345.9888023006423,240.78104482369804L346.5470435058826,223.8591304212568L349.21983473097265,220.4027659674527L350.7084779449469,227.56142286975128L351.3428429509018,239.7705303222274L352.9329845658288,240.87984075008862L356.7307164014789,243.6193551756922L356.7391746015583,238.2417283491702L356.9167968032257,211.95821685263587L357.5849946094982,216.4857215189862L360.27470223474705,216.41135420479105L360.5622810374466,205.77663790073652L360.909067240702,208.37562861404902L361.0613148421312,192.62225584050296L362.1355062522149,204.06792113144746L366.89747289691644,215.0070077971994L367.9462897067619,218.2583045189126L370.63599733201073,214.15761828343452L371.31265333836274,211.9792775051645L371.85397814344424,221.57390410846784L372.37838654836696,200.33678281657708L372.4883431493991,207.11514237338557L373.19037375598924,204.56508995518806L373.9008625626588,205.54454829147514L374.94967937250425,196.53104770054097L375.60096077861795,193.4772477480912L377.0896039925922,192.99713001451283L377.1572695932274,187.5898188616606L378.34987580442265,183.97173356277514L379.4579000148239,192.1063182663626L382.00381823872294,194.59639235634674L382.8411800465834,201.70916411785154L383.37404665158556,208.58631530591555L383.4163376519826,209.21600656332592L383.62779265396756,210.7471657321495L385.37018187032373,151.70288140197874L386.5543298814396,160.0560410275041L387.02798908588596,169.0942047983397L387.4001498893795,178.21131512239222L388.38130109858974,195.97022319610772L388.406675698828,195.1116422304942L391.1978817250296,205.93393843262425L391.8237885309052,187.95067269920057L394.5304125563128,197.38984334221877L395.34239976393513,200.21222917234985L396.9240831787827,214.45472085568775L397.7106957861668,228.64137254779635L398.2604787913277,241.70545801852558L400.4426944118127,235.4218925353311L400.9248118163384,218.21917537151583L402.3288730295186,217.94122374746598L403.20006763769675,214.53832702647574L406.37189266747134,227.98630420382375L406.60872226969445,239.30508853063088L407.1669634749348,249.92010345149413L407.2853782760464,249.67788658393175L408.1311982839863,237.98134368952466L408.30882048565365,246.69444734124173L408.6302320886708,245.13458696946316L410.22883190367725,249.17369080644647L410.33878850470944,247.35867236885758L410.3895377051858,249.6338578467283L410.6517419076472,251.5519747982411L412.47025492471795,246.56405624946913L415.9296587571921,244.32294910847324L416.2849031605269,255.84479362981898L417.50288397196033,264.15043269713385L423.4489986277777,264.1209585415122L425.2928862450867,270.0410138806823L426.2909538544558,270.24414593504844L428.6592498766875,262.7023768883785L428.8284138782755,270.9496930631583L429.73344128677115,267.85349328319097L429.97872908907374,272.1808377172665L430.12251849042354,266.7819586391128L430.15635129074116,265.2794669070224L430.2916824920115,266.7412866739777L430.5369702943141,273.3086717783647L430.9345056980458,274.8537666616385L431.0952114995544,276.5755080523008L432.1609447095587,275.68461338684375L432.53310551305225,282.2571576210992L434.20782912877326,283.8093003677842L434.7576121339342,281.88234330313213L434.87602693504573,257.24666355090244L436.1616733471144,263.439238074429L438.0393937647409,264.01770164551743L439.64645177982675,270.6127873031443L440.13702738443186,270.33356744848135L441.304258995389,261.9908798407658L442.3615340053138,248.23615003838455L443.41880901523865,246.40561695692284L443.934759220082,251.01829958121587L444.1123814217494,253.71250238467746L445.1781146317536,258.56381626386997L447.2926646516034,251.36671197600197L447.9016550573201,243.40373964135048L448.20615026017845,247.0708166005665L448.7728496654982,241.91651648206872L449.16192686915053,224.14389653308163L450.59136268256896,216.3796295212973L452.35066829908396,221.62926427898924L452.8666185039273,234.5317502312882L453.81393691282,232.7502600646367L455.0488341244122,232.3129492534276L457.1718423443413,237.41716289824518L459.23564316371466,252.5957224797434L460.36904197435416,253.44785525462183L460.8596175789593,257.47276350777133L464.21752301048065,247.45115083005396L470.16363766629814,251.66228785376867L471.2885782768582,248.4715120986253L471.33932747733456,255.765606883279L471.6353644801135,253.27345099769053L471.99060888344826,266.3326053402795L473.81758010059843,276.5060377490652L474.105158903298,267.95535784429313L474.8579387103645,268.1629614813112L474.9594371113173,265.7785311966352L475.25547411409633,256.09798669827313L476.4396221252121,256.75206394384395L476.50728772584733,262.18866122530096L477.30235853331084,251.65366144155897L477.5138135352958,252.94829401421126L480.0597317591949,267.31988591333806L481.03242476832577,251.99994159626374L482.4872351819824,250.7439342548875L485.6083110112806,258.5448228375087L489.1438386444693,263.48680281139707L492.6709080775787,256.79076330607523L493.80430688821815,268.92136723983265L495.27603370203354,256.62519633553376L497.9234503268855,261.4664940421073L498.2702365301408,262.58276641617624L498.50706613236395,258.0794217419727L500.3594119497523,261.8248222205296L501.475894360233,264.86779101262806L502.2117577671407,270.6830075373971L502.5754603705549,282.0255251920156L503.32824017762135,265.91922224204365L504.61388658968997,260.57709938927337L505.56120499858264,266.92085366153844L505.8064928008853,264.63590105534604L508.17478882311696,261.5325846577883L509.78184683820274,262.79091926856086L512.4208052629751,270.89964614526195L513.5964950740116,271.96403205626683L513.8248664761554,273.01417962756494L514.7298938846511,271.52872765974956L517.6564311121232,274.87985095763L517.9863009152198,277.8190976118485L520.8705471422948,284.1119716904602L521.767116350711,278.0380717537494L522.1561935543634,285.6042310222417L522.4437723570629,280.6516316524808L524.0677467723075,275.8574947706353L525.9877581903311,282.1601139267318L526.0554237909663,288.95896647504713L526.4106681943011,294.81991427756657L527.83164580764,258.4919861690414L528.169973810816,262.9927350646708L529.1088340196293,259.52112866525727L529.9461958274899,263.8342991260221L531.5701702427344,265.6198807360351L535.1902798767172,267.52996311523214L535.7654374821163,277.13781291954075L539.554711117687,269.1181024003685L541.9145489398393,242.50022291296466L543.1917371518285,249.04747384705595L547.6492085936718,251.70367606253583L549.5100126111396,253.76276156732425L549.8567988143949,250.3649802763002L551.2693182276545,254.61423026904265L551.3708166286074,262.1166754676687L554.2804374559206,263.9468543317747L555.6506658687832,270.6400360708448L556.2004488739442,278.58181575586104L556.3780710756115,268.80259345294525L556.9024794805342,273.6908853211305L557.1477672828369,278.4343099418935L559.3722739037187,281.05960285942473L559.7275183070535,266.1030651578812L563.3983771415127,271.0931456617852L564.6501907532637,281.53512311886374L567.0184867754954,270.15253561473327L569.725110800903,269.8216730029763L570.1818536051906,273.1511900896913L570.7316366103515,262.64086156257514L572.5755242276605,265.54861565966576L574.1487494424287,261.8642795747092L577.5996950748234,250.52724061982457L578.4370568826839,251.8105784927082L578.6992610851453,250.6890392834626L580.940684106186,239.7192576864523L581.2282629088855,233.4753116956684L584.586168340407,242.77082694336622L585.3643227477116,218.50546670219603L585.6011523499349,228.915803549099L586.556928958907,225.65391810379873L587.6226621689112,233.52043029138693L587.9440737719284,237.19221059979003L588.2062779743898,237.91783936425708L588.9505995813769,234.38112797542078L589.0943889827266,238.83325300485416L589.7287539886815,243.66422037785836L589.9232925905077,253.1190593920433L590.185496792969,246.64585104795478L592.0716754106751,252.04609259522692L592.240839412263,248.13500856227535L592.3592542133746,251.65900554901285L592.7652478171857,249.70002244030792L594.6006772344153,255.69215157968335L595.6494940442608,267.80177749484284L595.8101998457694,274.39024966575187L595.9116982467222,279.4642068656399L596.0470294479926,279.2603077847796L596.5714378529152,281.88954841338494L600.7582468922178,274.07145225185474L601.1304076957114,281.0090470538853L603.0757937139731,287.15268476728L603.1772921149259,289.0905929799846L605.8077923396189,289.37026509372674L606.3491171447005,289.81018798121056L607.1611043523228,276.4369910478431L607.7954693582777,277.3072543901295L608.8019951677262,285.79496545693695L610.9165451875758,288.0006327209995L611.0687927890051,295.4720183795624L612.1768169994064,274.16626796336664L612.4474794019471,275.21307636742824L614.1983268183827,281.67153512450545L616.2282948374384,285.5155894932319L617.6492724507775,295.0833754522362L618.5120088588761,292.646297206499L619.2817050661015,293.45311609930576L619.5608256687216,299.0963843863718L620.1444414742002,295.99852665008547L621.0833016830134,295.23371890861813L621.3793386857923,273.9286251067449L622.622694097464,65.51768917680316L625.7776027270799,91.02070140917058L626.9955835385133,113.16315108769076L627.1732057401806,118.26830150318808L629.1016753582836,133.6968500008192L629.1439663586806,150.51063595184482L629.5161271621741,166.0112163078302L629.6260837632063,165.73935571141243L631.5291787810711,182.16280648229224L632.1720019871054,174.68116620488775L632.2312093876611,184.96942969645315L632.696410392028,193.8790854288104L633.2715679974274,203.83096940769536L633.9313076036203,213.45838052745503L634.3288430073521,223.79670076741974L634.7517530113221,221.64349755184892L635.5975730192621,231.79079167836585L638.4564446460988,230.0578310675495L639.4545122554679,242.46603342322703L639.6321344571353,247.5618328168086L640.3933724642811,261.5248905281769L641.9073902784936,260.687380134554L643.4890736933412,264.47905615770674L645.6966639140643,272.4542902404632L645.9927009168432,278.5532626359954L650.5516707596393,286.3568185536846L651.2283267659913,297.8270816792284L651.5497383690084,303.45137356033985L653.3344185857616,296.2576659373403L654.2817369946542,300.6340344602107L655.3051792042614,283.9926122295495L656.5908256163301,280.30335902808736L656.9883610200619,275.2128100556531L657.2421070224439,271.8337833544906L657.3013144229997,269.98664544417244L657.478936624667,275.4450345482872L658.2486328318923,280.06679275862825L658.2655492320512,290.90529095022544L659.2297840411026,286.6813149088741L659.5850284444373,287.1945553680514L660.5492632534889,289.06651299089856L662.0379064674631,292.0718425827467L662.9852248763558,284.35578983004194L664.3554532892184,280.5233392531873L665.2097314972376,278.35004737704696L666.4615451089887,275.35434350329047L667.2396995162934,273.5953115070288L667.3496561173256,269.8579330694605L667.6541513201839,269.7218861884506L667.9755629232012,272.5923056366414L668.1531851248685,278.69055652638104L669.54032993789,260.19488242944095L670.1577785436859,257.236978865414L670.622979548053,245.99180058427459L671.1981371534522,250.78695769287938L671.5956725571839,256.3527517921151L672.21312116298,262.71502731683154L674.9197451883877,265.66591892904904L676.7213418052996,265.09360279874403L676.729800005379,265.0577225148699L677.4656634122867,256.1648376114027L678.996597626658,259.2081647496787L679.3687584301515,270.50108380287446L679.8424176345978,278.82252212329524L681.584806850954,285.58347927127465L682.8027876623875,283.00422194758164L683.4371526683424,290.0570989727723L683.6063166699304,283.91857037416935L684.5620932789025,288.25953487276223L688.0553299116942,287.6082852235346L688.4866981157436,288.32773384418266L690.1529635313852,291.75754220551715L691.3709443428186,288.9246682653965L692.546634153855,294.7475664426641L693.011835158222,279.25031239850153L693.3670795615568,271.7988727807334L693.7307821649708,280.030882793782L694.7457661744988,289.18979234882437L694.771140774737,295.04636774844954L695.3716729803742,303.0278725464628L695.4731713813271,310.22726608308056L696.1667437878378,306.78559514121065L696.7841923936338,287.71712557228136L697.1901859974452,289.4070826376304L698.0952134059407,286.9052610853341L700.7595464309514,294.87503799794877L701.5038680379386,286.8648566466264L701.5123262380179,279.6297410496481L701.7576140403205,278.7888120397933L702.1974404444493,276.6094918764563L704.9378972701745,276.9784054264381L707.5683974948676,283.27765900226865L710.8163463253568,285.74412237270104L712.7109831431421,272.7244884929545L712.8801471447301,265.19102164081306L719.8327876099961,276.5993532471654L720.2810722142041,276.3294087396367L720.8646880196827,279.98583321261776L722.3702476338157,292.69028148885286L723.266816842232,295.2686464423635L729.7035071026545,302.1592706203865L730.3378721086094,300.63228571909957L731.9533883237748,291.65489551133743L735.3535847556931,300.0790246865927L735.5142905572017,306.83999495924905L735.5734979577575,313.2546692908247L736.8253115695085,316.421560418142L739.5742265953131,313.86835567261414L740.8091238069054,284.5451237688141L741.7310676155598,291.55304299390605L742.0947702189741,296.1612522024641L742.4500146223088,288.3705877127077L742.8729246262787,285.8426749415001L744.9198090454933,288.09548944062266L746.4338268597057,282.808226911257L748.0408848747916,274.7761854099087L749.495695288448,283.7176172279438L749.5802772892421,282.89342131181286L749.8001904913065,286.2262372935652L751.2550009049631,292.6306579158276L752.0754463126648,285.2957462376063L754.5536989359288,265.9693262354897L754.7905285381519,276.89635362025217L755.619432145933,278.7831205104713L756.1184659506175,275.8789856929046L757.6324837648299,237.60960077029927L761.3371753996066,247.88588336663815L762.8596514138985,252.02698299800545L763.020357215407,255.68499237119545L765.0249506342245,262.8917174044971L765.5155262388297,266.6045392696352L766.792714450819,275.57246122018375L767.0210858529628,278.44067797772675L767.4017048565357,286.926923854547L769.3555490748769,294.02459886078714L770.632737286866,296.9335892979058L772.7811201070334,297.8021011312147L773.7368967160054,304.7755153758414L774.6080913241836,297.71806125246263L774.6250077243424,304.84002855769785L774.6334659244217,305.5336110125615L775.6061589335526,285.53588963776565L777.1963005484797,283.59979384863243L778.2704919585633,282.06144121880186L781.0870725850032,280.1366356627929L783.4130776068379,289.7706050396818L787.8959236489193,293.04923800052933L788.6064124555888,303.1010176991149L791.2030798799642,298.782743247364L793.6644161030694,300.91995698985704L794.4848615107711,301.25770930141044L794.7470657132325,307.1350184355328L794.8908551145822,299.6457313868606L797.1661109359405,304.7179176119549L797.1914855361788,306.2147819433482L798.172636745389,293.4101000365304L798.2318441459448,292.03396091092435L800.1095645635713,294.80184525491694L800.2448957648418,299.91647057377475L800.9046353710348,301.77834267481677L801.3275453750049,296.3206097277746L801.6912479784189,298.4140218985537L802.4271113853267,277.0238094304618L805.3028994123223,277.7712538405641L807.9841488374918,287.02686347123364L808.9399254464639,293.46928368641994L810.149448057818,294.422997686605L811.7903388732213,304.7342849178194L812.3485800784617,302.10266789317336L812.357038278541,306.7235819094339L812.399329278938,308.5714805764817L812.4585366794938,300.08058299519354L816.5607637180022,302.4309574605248L816.7722187199872,297.0990914617731L817.169754123719,301.9452204135368L819.7917961483328,291.34900996019405L821.6695165659593,269.49637768511656L824.714468594543,276.3865281908233L825.0866293980365,284.5753254646469L825.1542949986716,290.74876076271244L827.1673466175686,277.9263354897691L827.2350122182038,281.01800443855L828.5206586302724,290.6611732005945L831.1088678545685,296.79048270907253L831.3541556568711,303.05490201515215L832.5044708676693,311.56438656041263L834.5090642864868,317.03209751705504L836.2937445032401,315.0710997205229L837.587849115388,309.8835328071771L841.402497351197,315.2963144211387L842.1637353583428,314.5471547610932L845.2932693877204,313.63539076390174L849.395496426229,316.78485763269276L851.5100464460787,317.62690846890285L852.61807065648,323.11593229570155L856.4242606922095,325.6684672025372L859.3254233194434,327.4904000141839L860.1204941269068,328.7906209738568L861.5076389399283,331.1715653697448L862.8017435520763,335.1352777503255L863.7067709605719,338.31828411087434L865.5168257775633,331.1069737558755L866.4133949859797,333.19371438058505L869.8474242182157,316.5843745273542L869.9912136195654,303.13560908972227L870.2787924222649,308.49386769944834L870.4648728240118,300.9000098170291L870.7101606263143,299.9128836284097L871.2091944309988,296.13349153909326L872.3003022412414,299.47024817719824L872.9685000475139,302.3388568529989L873.2137878498164,297.04683684646096L877.7812158926918,303.560381274355L879.9042241126209,311.25380107283263L880.9107499220694,311.2575721457463L881.5197403277862,314.2145544493513L883.4397517458098,311.367020789952L884.1079495520823,315.5331952340823L884.6069833567668,314.5963342105317L885.7742149677238,308.9970227643229L887.178276180904,297.2203640030366L887.8126411868591,301.8948339336169L888.9967891979749,305.2892890860872L890.5700144127431,303.4844960779783L891.7626206239383,306.8300103102617L892.3800692297343,305.4299259766672L895.2304826564919,295.3554331408637L896.1524264651464,306.12932837346204L896.1947174655432,307.0052511785971L896.8798316719747,306.40657678133044L897.7002770796764,302.76043033642156L899.0958800927772,291.4813846721356L901.5318417156441,299.17455503764205L901.6079655163587,291.18141638520973L902.8174881277127,293.4557530887372L902.8513209280303,290.1747138667376L903.5364351344616,294.02501526590316L904.0016361388285,297.86500448705254L904.7036667454186,297.628816864731L905.2449915505001,298.30921744933164L906.6744273639187,307.0190130617697L907.5456219720967,312.8877752902324L909.3387603889294,316.1532542732079L910.6920724016331,312.4387149049364L910.9627348041738,313.22587550113053L911.0050258045709,317.85898786035034L913.0349938236267,295.98159914283747L913.6101514290258,304.4750805461205L914.1599344341868,307.18568020832913L914.5236370376008,313.91935700386966L914.5828444381566,321.50463092540747L914.6420518387125,316.4898722244795L915.2002930439528,315.9256858536684L915.6147448478432,317.5034184644838L919.1164396807144,326.0309064958115L919.8861358879398,314.9730589628942L920.8165378966736,323.5700794157212L921.3832373019934,311.71029277496604L922.245973710092,315.1406091202242L922.6858001142209,304.96379928990984L923.8868645254954,310.75002828155647L924.597353332165,313.2641745376588L925.2063437378816,320.08905115455656L925.3501331392315,326.44292856011344L926.2720769478859,319.9333035471928L926.568113950665,311.2383519769408L926.9149001539204,309.3445778766096L929.2493633758344,310.067537638495L930.3996785866326,297.43238947766395L931.2624149947313,299.14248959965084L931.507702797034,305.0832738791005L931.6937831987807,307.9443798290342L932.6918508081498,313.99458673738064L932.8525566096583,311.1535340864361L934.7387352273643,311.0196495447769L936.2442948414972,305.92470695747585L936.8025360467377,295.69469845838427L937.6398978545982,292.5910213689649L937.7329380554715,299.9576420374141L937.8851856569007,296.52405848679314L938.0628078585681,303.44607926090356L939.5514510725424,309.24289981258437L940.6933080832612,310.43591037830623L940.7525154838169,312.517896513029L942.3680316989822,315.37332305370194L943.3999321086688,315.61875155785793L943.6959691114478,315.2466184583363L944.1865447160529,319.89289923011074L944.423374318276,313.3935959366915L945.1338631249456,317.04735497502264L946.0304323333619,314.25929805351615L946.1150143341558,317.007646810584L947.8235707501946,321.7644470988447L949.9212043698855,329.593143301673L955.1822048192715,325.5236608416527L955.7235296243531,324.8493350940309L958.2186986477757,311.35092701504334L958.5908594512692,310.4091414274777L961.7288516807264,313.7930228268133L962.6761700896191,314.637426700045L962.8622504913658,313.9023414720238L963.6234884985117,308.4459391462772L965.0867571122476,304.75959989544685L965.8733697196318,308.8819832525845L966.6853569272541,316.6015687170439L970.6691691646511,321.6862109242705L971.0244135679858,322.7678186812531L972.7414281841037,328.2355828747055L973.1558799879942,326.90053337852765L973.5618735918054,324.2913176544325L973.8156195941874,329.2576142201319L973.891743394902,332.9930723964913L976.057042615228,330.1982860891968L979.0597036434148,332.60591291921537L981.7409530685842,323.9159039479823L981.9354916704104,320.40317899186084L982.1469466723953,320.8307285864107L982.9504756799382,314.90037678669734L983.1619306819233,317.877940042725L983.8724194885926,321.97013349016356L983.9992924897838,323.9547708807648L984.1684564913718,329.91019719030453L984.8958616982001,330.79895747561324L984.9043198982794,332.78481142279674L987.3994889217021,336.47615878130154L991.2479699578286,336.66126841123156L991.6793381618779,329.9021290384328L995.8746054012598,333.0651103556841L997.5831618172984,335.8773415402566L998.0145300213478,339.321365425002L999.3593838339723,337.2566319783161L999.4439658347662,328.0457172432403L1001.177896851043,326.59750400735055L1002.6834564651759,333.0041827496075L1002.7934130662081,332.14464680462567L1003.2501558704957,336.4769361188345L1003.3854870717661,334.5765164133009L1007.1832189074163,333.65535440687233L1007.7752929129742,332.83994176012703L1007.8091257132918,334.8320950199714L1008.3589087184527,340.876763345372L1008.4011997188496,342.1744046220739L1009.0440229248841,345.19710417627385L1010.1097561348882,346.78010735665003L1010.3465857371115,343.7290491922019L1011.5222755481478,332.644025687464L1014.5418529764933,329.7092731257477L1014.5503111765727,309.2447161837491L1015.3538401841156,298.4068307926138L1016.6394865961843,297.5319731954451L1017.459932003886,289.55474496835876L1018.2296282111112,292.58855537960994L1018.2634610114288,295.32007828464424L1019.3122778212743,296.8735685422834L1022.9915948558128,294.61447905270387L1023.8204984635939,298.17884939706954L1024.6155692710574,304.0737583334797L1028.1257223040081,308.11618029092847L1033.4966793544263,315.03285258792135L1034.469372363557,322.27511638437886L1034.9853225684005,329.58213985562264L1035.1714029701473,336.77764659992687L1035.6366039745142,336.09082786996646L1038.5208502015892,340.32208953551185L1038.6730978030184,345.1739324030291L1038.79151260413,349.07631936516066L1039.3074628089735,341.60729533850474L1040.297072218263,344.7178030434111L1040.7707314227096,338.2680004401043L1042.8768232424798,341.342946458988L1043.3251078466878,332.47758332792955L1043.942556452484,332.09166528345685L1045.9725244715398,327.28027241176034L1046.9283010805118,332.92607359508077L1047.7233718879754,330.01989387484906L1049.389637303617,324.2721585180182L1049.9563367089365,315.85867553650996L1050.920571517988,299.72453127154665L1051.3688561221963,300.40717629051096L1053.4072823413314,288.1478973202761L1054.8874673552261,286.6798218320833L1055.2342535584817,292.75469843732685L1055.4457085604665,298.31637227266083L1056.5875655711855,287.46075321597465L1060.3260900062796,294.68514723594166L1061.1042444135846,303.733775644789L1063.7770356386745,304.375540475723L1067.8708044771035,310.49673834417075L1068.9534540872667,308.78071402146645L1069.063410688299,301.52784423210824L1069.4186550916336,292.33476019292857L1071.609328912198,291.9080455373208L1072.9118917244255,293.12275956659636L1074.7980703421313,293.7765269022062L1076.252880755788,297.60564564506006L1080.6511447970754,297.36241125521485L1082.1144134108115,302.7493512464504L1082.3935340134317,295.461965379194L1085.9459780467791,300.8852945282708L1088.2888994687726,306.9920882940137L1090.0397468852082,307.677182432311L1090.2596600872728,311.5073434192023L1090.2850346875107,320.7802146463602L1092.069714904264,327.45321591606734L1093.2538629153798,324.32935897450756L1094.8947537307833,326.25579372538726L1096.036610741502,324.0674998423742L1098.0158295600813,328.6725812608017L1098.963147968974,330.22906682055265L1102.2703042000192,327.46763375405646L1103.8435294147873,330.5873334596779L1104.0634426168517,331.981605748188L1105.0530520261414,339.064638174311L1106.2118254370191,330.08814113254437L1108.0387966541691,330.7174527629311L1109.941891672034,325.99952640875074L1111.4136184858494,314.6771706836511L1112.5385590964095,320.512449283546L1114.07795151086,322.72337684548995L1118.510048352465,314.7975513752833L1118.7553361547675,302.7461620460359L1120.3201031694564,303.33024351600864L1120.7260967732675,306.0971166334822L1121.0475083762847,312.5837066463283L1121.411210979699,322.0131031246177L1122.5023187899415,310.9011350090848L1123.280473197246,305.1809467644222L1125.5726454187632,308.3371464280703L1125.7418094203513,303.28237865660424L1125.7756422206687,307.2483422688011L1125.9532644223361,310.08920193266516L1127.5687806375013,301.727661108675L1128.6937212480614,307.98774805616983L1130.6729400666406,307.3950742990676L1134.1746348995118,295.0217302286823L1135.7732347145184,299.4935083674863L1136.7713023238875,306.34576603072037L1137.0757975267456,311.5324696666209L1137.2872525287307,315.20455012682226L1140.095374955091,312.0440372666048L1141.5840181690653,309.462625938444L1141.8462223715267,299.43618926388126L1144.7812177990781,310.39856222268236L1145.855409209162,306.8471601700917L1146.1091552115438,312.078479403782L1147.893835428297,310.8052907276566L1148.5704914346488,316.29362558993193L1149.441686042827,316.8813027211351L1149.8984288471147,317.26997547066514L1154.0598632861788,315.9395532559999L1154.7026864922132,303.818025848738L1155.3455096982475,311.8798553134629L1155.8107107026144,318.57921045146094L1156.5719487097604,322.2436584477984L1156.7495709114278,320.47507705807584L1157.0625243143654,324.6615233868758L1158.5088765279427,329.34634629091556L1160.6065101476336,332.4041506000598L1162.2981501635134,339.5530233275792L1164.302743582331,325.5422748392077L1171.111594646247,329.9343228236786" style="fill: none;" fill="none"></path></g></g></g></g><g opacity="0.2"><g><g><g><path stroke="rgb(255, 112, 67)" stroke-width="2px" d="M33.50905856732783,112.18658135791642L34.11804897304455,256.23585795561985L35.98731119059171,155.60192344304576L36.367930194164664,202.35165691184355L36.75700739781702,147.20391442812848L37.61974380591571,46.95414409760549L38.85464101750796,272.77014815372706L40.73236143513452,168.59515263683645L41.62893064355081,212.52584070793526L42.068757047679554,252.21861477367653L42.80462045458726,239.80456348724493L44.38630386943486,-18.308443078651777L44.690799072293224,124.26466029139392L44.82613027356361,221.70236463306398L45.14754187658077,179.66658606367065L45.291331277930546,333.18543698788943L48.463156307705155,-126.23474369507802L48.63232030929313,86.07305251859113L53.22512295240676,173.94501080092172L53.85102975828228,110.28018550116676L54.832180967492555,216.16529159728006L54.95905396868354,250.56506001147972L55.035177769398125,246.70158987787755L58.130878998458144,-39.47241252076515L59.46727461100318,237.28147893267806L59.67027141290875,169.42279184777215L62.216189636807826,33.821241956745645L62.50376843950739,123.07013588022646L62.96051124379494,266.55564860913563L66.08158707309315,-95.26696536152768L66.80899227992145,161.47852917799673L66.91049068087423,235.8259896211147L67.41798268563818,33.01479528279196L67.80705988929053,145.86810643708128L68.66133809730982,200.44739443715008L70.65747331604797,251.76481191510268L72.9242709373269,187.15501139132195L75.1064865578118,225.92483634314067L75.49556376146417,54.84209113244084L75.9269319655135,189.26793558513984L76.0368885665457,373.8141971098866L76.56129697146844,244.37901497987605L76.84041757408859,334.6198750460507L77.40711697940833,189.03255714106015L78.18527138671303,195.41290948007241L79.98686800362499,-88.56989762149897L81.38247101672583,290.2056297944554L81.67004981942539,119.60026767181132L82.64274282855627,227.97310917080554L82.77807402982666,256.08260765652426L83.25173323427299,-172.21102020582398L83.97068024102191,199.0454516023611L84.7065436479296,217.91001665357328L85.16328645221715,45.29216883404785L85.6284874565841,286.9918098178564L85.92452445936306,264.74563641058L87.61616447524284,214.12712054557656L88.97793468802607,77.10691397226135L89.14709868961405,125.57766511264853L89.99291869755395,274.54758035876245L90.57653450303248,269.43752281480715L91.1855249087492,200.97684052439152L91.71839151375134,-69.10367644536873L93.40157332955171,153.520562000973L94.94942394408172,274.8330297035516L95.18625354630491,300.88380037669424L96.7087295605967,280.215524374589L97.43613476742502,302.3193828318526L99.60143398775115,204.17236427739607L100.75174919854939,286.264962312807L102.18118501196781,188.9176935906179L104.35494243237335,69.5738995468L104.40569163284974,126.66891122692387L104.94701643793128,253.07397382298458L105.29380264118663,114.52270535122834L105.5898396439656,230.35834333648373L105.84358564634758,56.21412423336922L106.08041524857073,274.2321223816069L106.28341205047631,351.32386095195153L106.3003284506351,-34.73864966346157L109.46369528033031,279.71974616443293L110.3095152882702,319.8835879422093L110.63938509136676,299.87526167008053L110.94388029422512,200.79625185258917L111.21454269676589,306.40124205905386L112.8046843116929,264.6602304865427L114.20028732479372,227.51142268847445L114.54707352804907,135.1496841629347L115.25756233471859,277.86768797250505L115.51130833710056,160.81398773167427L115.73967973924434,51.397597454972114L115.9342183410705,329.5401440225166L116.20488074361127,245.78450403252L116.40787754551683,154.54964334010128L116.45862674599324,164.27650919393565L117.16911555266273,384.90790389308887L117.39748695480651,284.4657583081121L117.65969115726789,303.0635093187213L118.2517651628258,356.54029090319835L120.40014798299313,401.2725752063491L121.01759658878926,115.98883331635666L122.07487159871414,230.1259035908655L122.09178799887292,269.688018601934L122.61619640379566,221.72090103874424L125.28898762888574,238.8447958724057L126.09251663642863,166.11822542781633L126.93833664436852,202.95133506664322L132.0217148920873,242.78132374516375L132.42770849589843,231.12662931551193L133.78102050860227,367.630518578246L134.19547231249283,325.6690092547059L136.22544033154855,64.6870983157707L136.5468519345657,311.7483098724365L136.91901273805928,252.12183552145888L137.5787523442524,176.5108195100442L139.54105476267293,278.2997190314194L141.20732017831452,181.0367824780606L141.53718998141107,231.19033408167968L144.5821420099947,309.74016158145747L145.29263081666423,195.1746064658892L146.42602962730368,310.6117753066307L146.66285922952684,326.14668197410043L147.280307835323,128.33509674116195L147.44101363683157,132.38256048084153L147.48330463722854,7.712205935260569L148.79432564953538,204.81187027336387L149.19186105326713,230.47656943612714L150.2237614629538,275.98008283187943L150.85812646890872,308.06045522862485L152.05919088018337,183.8910640005816L152.7104722862971,76.80434105759086L153.5224594939194,271.5494015101339L155.9245883164687,-35.61604895123091L156.77040832440858,134.84682868110445L157.66697753282486,88.52714830110268L157.77693413385705,73.47473918728036L159.47703234981626,134.0413144787779L159.51932335021323,95.64363047636255L159.97606615450076,371.22901488987316L160.49201635934412,329.0076532741287L162.06524157411232,320.5472887512315L164.08675139308866,267.85800064846734L164.32358099531183,276.7602225032595L169.4238756431894,332.11404121658717L170.70106385517863,222.41871476812835L174.43958829027295,294.19723707082954L174.71025069281373,317.06352530273523L174.8540400941635,121.39329758406544L175.05703689606906,200.6739144007713L175.39536489924507,336.1897475438847L176.85863351298104,308.87951852626185L176.91784091353688,277.9049868375933L180.60561614815478,251.0979392897122L182.0265937614938,274.2346089726128L184.34414058324913,290.9792280360871L185.3252917924594,150.28751332915235L185.3929573930946,179.87229495597558L185.4267901934122,233.37921232804095L185.46062299372977,195.67263108496545L187.7274206150087,342.93425124585815L188.370243821043,267.09888397377335L190.72162344311593,248.78158086922548L190.77237264359232,286.86281790942616L191.0261186459743,271.87432548714145L191.94806245462877,245.57921899095464L193.68199347090555,241.84351159863778L193.71582627122316,246.3269058240364L194.52781347884547,295.34129498726395L195.45821548757934,156.41512347211773L195.94879109218445,207.07990970953176L196.99760790202996,257.8867424581569L197.3782269056029,106.61545897938146L197.9787591112402,320.4705788315358L199.87339592902558,328.0162946508284L201.2097915415706,187.59016481735165L206.1070893875426,304.77308302034044L206.44541739071855,219.4082866331243L206.6822469929417,42.07415273512641L207.6464818019932,320.6310416573843L208.33159600842453,340.0908061739139L209.40578741850817,211.95135341542817L209.98094502390734,231.3373396465446L210.1162762251777,257.61633981462506L210.76755763129142,204.59690730657684L211.93478924224848,122.65015631067588L212.306950045742,-152.36146842076406L215.39419307472264,206.42412784516185L218.66751650545004,173.03459354053447L219.50487831331054,243.56315881950235L220.73131732482335,266.2761190463435L224.07230635618595,140.41391034925482L227.19338218548415,285.00666249368174L227.4894191882631,239.31238800837576L230.0268792120828,174.01026968646818L230.0353374121622,166.98906915747926L230.82195001954628,301.50998333107935L231.5747298266128,319.8274983609971L238.24824968925859,170.6710040192939L239.0179458964839,241.21943376959288L239.05177869680145,163.29196043918552L241.00562291514265,299.0281394534794L241.1240377162542,335.0113153324656L241.46236571943015,335.78523852633094L242.05443972498807,172.27202954649144L242.18131272617907,182.75676877951688L242.98484173372196,229.73768457007188L243.43312633793013,295.51400709948797L243.95753474285283,139.07872400595906L244.4565685475374,101.28465997022201L245.61534195841503,306.7645881056097L247.26469097389784,179.14765147477226L248.9986219901746,338.1280734896872L249.45536479446216,159.1282768266968L249.55686319541496,253.0573871307067L251.36691801240633,309.05523291455836L254.1919568389256,269.2296098986561L254.53028484210154,294.6174497582869L255.15619164797707,232.88288311192332L257.43144746933535,255.84643802439723L257.8289828730671,295.96497015810615L258.8693414828332,250.82516308203836L260.5440650985542,346.2638813728846L260.6709380997452,331.4242877154352L261.3053031057001,231.8905355035638L263.0307759218975,146.78351100783826L264.2656731334897,66.80782136319795L264.83237253880947,296.89903122558627L265.72048354714633,314.04272695296794L267.12454476032656,316.2640297809116L267.4713309635819,193.20878673544217L267.9872811684252,226.34348784704036L268.93459957731795,237.8818352486612L269.2644693804145,237.63317614807278L269.74658678494023,161.02387861794367L275.5996612398843,-8.19892477707102L277.1052208540173,91.36923705068006L277.2067192549701,214.360407992674L279.5327242768048,309.38118119751994L279.96409248085416,321.2985429947052L281.48656849514595,278.1652735768058L282.12093350110086,233.9440358236843L282.58613450546784,283.76237800568066L282.72146570673823,246.28591945751327L283.06825190999353,277.51231738403345L283.97327931848923,89.47521763552788L284.370814722221,187.07795532685552L284.51460412357073,282.2030311345477L284.7345173256351,228.49513787010332L286.2654515400063,195.3167942606802L286.36694994095916,73.44639770115649L286.47690654199135,244.06114105350457L288.3377105594591,202.5366818880541L288.6168311620793,102.67856376931576L291.74636519145685,312.0141843772332L293.34496500646327,35.744337532637104L293.573336408607,307.96441771520165L293.911664411783,196.5019656988596L293.9793300124182,349.7928838236584L294.3091998155147,128.4219013726401L296.3222514344117,-10.977464172418433L297.43873384489234,-12.1884339922839L297.7263126475919,256.6882338500369L299.3925780632335,201.63556108722292L299.8408626674417,261.57202574081475L301.8877470866562,210.87300649199582L302.0230782879266,173.47901516940428L302.31911529070555,251.83115868421427L302.51365389253175,319.3203750793766L302.8350654955489,223.06087689539788L307.0049581346925,281.4819762562733L309.5762509588298,211.98181415525022L309.686207559862,222.70758317555058L309.6946657599414,116.7506061223524L310.34594716605517,271.5018172004305L311.27634917478906,67.87821402108302L313.53468859598854,299.32715908611596L314.625796406231,321.76279377401113L317.10404902949494,250.85002899209718L317.9667854375936,198.4202293763192L318.482735642437,232.7558409168954L323.5576556900763,348.37165578021586L327.6767991287436,332.433864856361L327.81213033001393,147.05850536771624L329.27539894374996,331.4392425823654L329.92668034986366,259.80268908490643L331.2799923625675,231.7260390315098L332.1258123705074,310.7438542612813L332.75171917638295,187.30906700682283L332.98854877860606,216.38018392227718L334.045823788531,157.36615976172038L335.81358760512535,333.5335173436392L336.1096246079043,250.0149300081439L340.7870092518119,339.8625342939022L342.4194418671359,221.31937310472588L344.0603326825393,191.26095240471378L344.0857072827775,279.2397775868654L344.18720568373027,252.55232658935253L344.9738182911144,59.769695061339426L345.5574340965929,188.9244752024521L345.67584889770455,354.2819223280732L345.9888023006423,262.61544736330075L346.5470435058826,71.56190079928818L349.21983473097265,189.29548588321637L350.7084779449469,291.98933499043744L351.3428429509018,349.6524973945109L352.9329845658288,250.86363460083962L356.7307164014789,268.2749850061245L356.7391746015583,189.84308691047238L356.9167968032257,-24.593386616171234L357.5849946094982,257.23326351613906L360.27470223474705,215.74204837703428L360.5622810374466,110.06419116424658L360.909067240702,231.76654503386135L361.0613148421312,50.84190087858899L362.1355062522149,307.0789087499472L366.89747289691644,313.4587877889669L367.9462897067619,247.51997501433107L370.63599733201073,177.25144216413193L371.31265333836274,192.37421050073436L371.85397814344424,307.9255435381977L372.37838654836696,9.202691189560163L372.4883431493991,268.1203783846621L373.19037375598924,181.61461819141084L373.9008625626588,214.35967331805864L374.94967937250425,115.40954238213367L375.60096077861795,165.99304817604286L377.0896039925922,188.67607041230752L377.1572695932274,138.92401848599073L378.34987580442265,151.40896587280596L379.4579000148239,265.3175805986492L382.00381823872294,217.0070591662037L382.8411800465834,265.7241099713953L383.37404665158556,270.48067599849145L383.4163376519826,214.8832278800191L383.62779265396756,224.52759825156173L385.37018187032373,-379.6956775695576L386.5543298814396,235.23447765723213L387.02798908588596,250.43767873586012L387.4001498893795,260.26530803886476L388.38130109858974,355.800395859547L388.406675698828,187.3844135399727L391.1978817250296,303.33460425179464L391.8237885309052,26.101281098387368L394.5304125563128,282.34237912938306L395.34239976393513,225.61370164352942L396.9240831787827,342.637146005729L397.7106957861668,356.3212377767737L398.2604787913277,359.2822272550884L400.4426944118127,178.8698031865807L400.9248118163384,63.39472089717851L402.3288730295186,215.43965913101758L403.20006763769675,183.91225653756356L406.37189266747134,349.01809879995574L406.60872226969445,341.17414747189497L407.1669634749348,345.4552377392638L407.2853782760464,247.49793477586982L408.1311982839863,132.7124576398608L408.30882048565365,325.1123802066956L408.6302320886708,231.09584362345612L410.22883190367725,285.52562533929614L410.33878850470944,231.02350643055766L410.3895377051858,270.1105271475644L410.6517419076472,268.8150273618569L412.47025492471795,201.67278931052127L415.9296587571921,224.1529848395105L416.2849031605269,359.5413943219304L417.50288397196033,338.9011843029683L423.4489986277777,263.8556911409173L425.2928862450867,323.3215119332136L426.2909538544558,272.07233442434296L428.6592498766875,194.82645546834954L428.8284138782755,345.17553863617576L429.73344128677115,239.98769526348508L429.97872908907374,311.1269376239463L430.12251849042354,218.19204693572928L430.15635129074116,251.7570413182093L430.2916824920115,279.8976645765755L430.5369702943141,332.4151377178479L430.9345056980458,288.759620611102L431.0952114995544,292.0711805682618L432.1609447095587,267.6665613977303L432.53310551305225,341.41005572939923L434.20782912877326,297.7785850879488L434.7576121339342,264.5397297212632L434.87602693504573,35.525545780835266L436.1616733471144,319.17240878616855L438.0393937647409,269.223873785313L439.64645177982675,329.968558221786L440.13702738443186,267.8205887565152L441.304258995389,186.90669137132528L442.3615340053138,124.44358181695364L443.41880901523865,229.93081922376751L443.934759220082,292.5324431998533L444.1123814217494,277.9603276158322L445.1781146317536,302.2256411766023L447.2926646516034,186.59277338519038L447.9016550573201,171.73698862948677L448.20615026017845,280.07450923351104L448.7728496654982,195.52781541558866L449.16192686915053,64.19031699219744L450.59136268256896,146.50122641523848L452.35066829908396,268.875977098217L452.8666185039273,350.654123801979L453.81393691282,216.71684856477268L455.0488341244122,228.37715195254574L457.1718423443413,283.35508570160323L459.23564316371466,389.2027587132274L460.36904197435416,261.11705022852794L460.8596175789593,293.6969377861173L464.21752301048065,157.2566367305976L470.16363766629814,289.5625210672007L471.2885782768582,219.7545303023356L471.33932747733456,321.41245994516225L471.6353644801135,230.8440480273944L471.99060888344826,383.8649944235799L473.81758010059843,368.06692942813663L474.105158903298,190.9992387013445L474.8579387103645,270.0313942144738L474.9594371113173,244.31865863455144L475.25547411409633,168.97308621301485L476.4396221252121,262.6387591539809L476.50728772584733,311.11803675841384L477.30235853331084,156.8386633878813L477.5138135352958,264.5999871680819L480.0597317591949,396.66421300547967L481.03242476832577,114.12044274259468L482.4872351819824,239.4398681825013L485.6083110112806,328.7528200810996L489.1438386444693,307.9646225763924L492.6709080775787,196.52640775817886L493.80430688821815,378.09680264364965L495.27603370203354,145.95965819684338L497.9234503268855,305.03817340126886L498.2702365301408,272.629217782797L498.50706613236395,217.54931967414024L500.3594119497523,295.5334265275424L501.475894360233,292.2545101415138L502.2117577671407,323.0199562603183L502.5754603705549,384.10818408358216L503.32824017762135,120.96249569229607L504.61388658968997,212.49799371434096L505.56120499858264,324.0146421119248L505.8064928008853,244.0713275996139L508.17478882311696,233.60273707976876L509.78184683820274,274.1159307655138L512.4208052629751,343.87818803557184L513.5964950740116,281.54350525531095L513.8248664761554,282.4655077692483L514.7298938846511,258.1596599494107L517.6564311121232,305.03996063855436L517.9863009152198,304.27231749981456L520.8705471422948,340.7478383979658L521.767116350711,223.3729723233523L522.1561935543634,353.6996644386727L522.4437723570629,236.07823732463208L524.0677467723075,232.71026283402625L525.9877581903311,338.8836863316002L526.0554237909663,350.14863940988516L526.4106681943011,347.5684445002414L527.83164580764,-68.4593668076851L528.169973810816,303.4994751253353L529.1088340196293,228.27667107053523L529.9461958274899,302.6528332729058L531.5701702427344,281.69011522615216L535.1902798767172,284.7207045280051L535.7654374821163,363.6084611583183L539.554711117687,196.94070772781828L541.9145489398393,2.9393075263303223L543.1917371518285,307.97273225387755L547.6492085936718,275.6094960018548L549.5100126111396,272.2945311104198L549.8567988143949,219.78494865708373L551.2693182276545,292.8574802037247L551.3708166286074,329.6386822553037L554.2804374559206,280.41846410872836L555.6506658687832,330.8786717224765L556.2004488739442,350.05783292100693L556.3780710756115,180.78959272670295L556.9024794805342,317.68551213479793L557.1477672828369,321.1251315287608L559.3722739037187,304.6872391172055L559.7275183070535,131.4942258439895L563.3983771415127,316.003870196921L564.6501907532637,375.51292023257105L567.0184867754954,167.70924807755836L569.725110800903,266.84390949716436L570.1818536051906,303.11684387012593L570.7316366103515,168.04790481853018L572.5755242276605,291.718402533481L574.1487494424287,228.7052548101005L577.5996950748234,148.4938900258627L578.4370568826839,263.36061934866063L578.6992610851453,240.5951864002521L580.940684106186,140.99122331335954L581.2282629088855,177.27979777861378L584.586168340407,326.4304641726469L585.3643227477116,0.11722453166394309L585.6011523499349,322.60883517122613L586.556928958907,196.2969490960961L587.6226621689112,304.31903997968084L587.9440737719284,270.23823337541774L588.2062779743898,244.44849824446092L588.9505995813769,202.55072547589415L589.0943889827266,278.90237826975454L589.7287539886815,287.1429267348958L589.9232925905077,338.2126105197083L590.185496792969,188.38697595115755L592.0716754106751,300.64826652067666L592.240839412263,212.93525226571086L592.3592542133746,283.37497842965035L592.7652478171857,232.0691744619638L594.6006772344153,309.62131383406256L595.6494940442608,376.7884107312781L595.8101998457694,333.686499203933L595.9116982467222,325.1298216646318L596.0470294479926,277.4252160570376L596.5714378529152,305.55271407083296L600.7582468922178,203.7085867980828L601.1304076957114,343.44740027216045L603.0757937139731,342.4454241878321L603.1772921149259,306.5317668943258L605.8077923396189,291.8873141174063L606.3491171447005,293.7694939685646L607.1611043523228,156.07821864753646L607.7954693582777,285.1396244707066L608.8019951677262,362.1843650582042L610.9165451875758,307.85163809756256L611.0687927890051,362.71448930662905L612.1768169994064,82.41451421760458L612.4474794019471,284.6343520039826L614.1983268183827,339.79766393820034L616.2282948374384,320.1120788117699L617.6492724507775,381.1934490832754L618.5120088588761,270.7125929948641L619.2817050661015,300.71448613456636L619.5608256687216,349.88579896996634L620.1444414742002,268.11780702350825L621.0833016830134,288.35044923541216L621.3793386857923,82.18278088988578L622.622694097464,-1810.1807341926726L625.7776027270799,320.54781150047705L626.9955835385133,312.44519819437244L627.1732057401806,164.21465524266426L629.1016753582836,272.55378647949925L629.1439663586806,301.834709511075L629.5161271621741,305.5164395116988L629.6260837632063,163.29261034365297L631.5291787810711,329.9738634202105L632.1720019871054,107.34640370824741L632.2312093876611,277.56380112054165L632.696410392028,274.06598702002634L633.2715679974274,293.39792521765975L633.9313076036203,300.1050806052919L634.3288430073521,316.8415829271021L634.7517530113221,202.26466861171156L635.5975730192621,323.11643881701815L638.4564446460988,214.46118557020225L639.4545122554679,354.1398546243251L639.6321344571353,293.42402735904255L640.3933724642811,387.19240993049175L641.9073902784936,253.14978659194807L643.4890736933412,298.60414036608125L645.6966639140643,344.23139698527126L645.9927009168432,333.44401419578537L650.5516707596393,356.58882181288703L651.2283267659913,401.05944980912284L651.5497383690084,354.07000049034303L653.3344185857616,231.514297330344L654.2817369946542,340.021351166045L655.3051792042614,134.219812153598L656.5908256163301,247.10008021492843L656.9883610200619,229.39786930374513L657.2421070224439,241.42254304402806L657.3013144229997,253.3624042513092L657.478936624667,324.57053648531974L658.2486328318923,321.66261665169736L658.2655492320512,388.45177467460024L659.2297840411026,248.66553053671223L659.5850284444373,291.8137195006469L660.5492632534889,305.9141315965234L662.0379064674631,319.1198089093793L662.9852248763558,214.91131505569922L664.3554532892184,246.03128406149594L665.2097314972376,258.7904204917839L666.4615451089887,248.39300863948213L667.2396995162934,257.7640235406734L667.3496561173256,236.2215271313461L667.6541513201839,268.49746425936115L667.9755629232012,298.4260806703588L668.1531851248685,333.57481453403807L669.54032993789,93.73381555697978L670.1577785436859,230.6158467891726L670.622979548053,144.78519605401883L671.1981371534522,293.94337167032256L671.5956725571839,306.44489868523675L672.21312116298,319.97550703927914L674.9197451883877,292.2239434390068L676.7213418052996,259.94275762599926L676.729800005379,264.7347999600032L677.4656634122867,176.12887348019726L678.996597626658,286.59810899416345L679.3687584301515,372.13735528163613L679.8424176345978,353.7154670070823L681.584806850954,346.43209360308947L682.8027876623875,259.7909060343445L683.4371526683424,353.53299219948855L683.6063166699304,228.67181298674294L684.5620932789025,327.32821536009794L688.0553299116942,281.7470383804857L688.4866981157436,294.80277143001524L690.1529635313852,322.6258174575277L691.3709443428186,263.42880280431064L692.546634153855,347.1536500380724L693.011835158222,139.7750260010385L693.3670795615568,204.7359162208205L693.7307821649708,354.11897291121886L694.7457661744988,371.61997834420595L694.771140774737,347.75554634507614L695.3716729803742,374.86141572858196L695.4731713813271,375.02180791264044L696.1667437878378,275.8105566643817L696.7841923936338,116.1008994519173L697.1901859974452,304.61669622577153L698.0952134059407,264.38886711466756L700.7595464309514,366.60303021148087L701.5038680379386,214.77322448472472L701.5123262380179,214.51370067684357L701.7576140403205,271.2204509510999L702.1974404444493,256.9956104064233L704.9378972701745,280.2986273762743L707.5683974948676,339.97094118474394L710.8163463253568,307.9422927065924L712.7109831431421,155.54778357523583L712.8801471447301,197.38981997154005L719.8327876099961,379.2743377043365L720.2810722142041,273.89990817187766L720.8646880196827,312.89365346944777L722.3702476338157,407.0303159749689L723.266816842232,318.473931023959L729.7035071026545,364.17488822259327L730.3378721086094,286.88942160751753L731.9533883237748,210.8583836414783L735.3535847556931,375.8961872638899L735.5142905572017,367.68872741315647L735.5734979577575,370.98673827500585L736.8253115695085,344.9235805639972L739.5742265953131,290.8895129628634L740.8091238069054,20.636036634614324L741.7310676155598,354.6243160197328L742.0947702189741,337.6351350794867L742.4500146223088,218.25460730490008L742.8729246262787,263.0914600006317L744.9198090454933,308.3708199327258L746.4338268597057,235.22286414696595L748.0408848747916,202.4878118977737L749.495695288448,364.1905035902595L749.5802772892421,275.4756580666347L749.8001904913065,316.22158112933676L751.2550009049631,350.270443516189L752.0754463126648,219.28154113361413L754.5536989359288,92.03154621644045L754.7905285381519,375.2396000831146L755.619432145933,295.76402252244316L756.1184659506175,249.74177233480435L757.6324837648299,-106.81486353314838L761.3371753996066,340.37242673368826L762.8596514138985,289.2968796803108L763.020357215407,288.60707672990577L765.0249506342245,327.75224270421205L765.5155262388297,300.0199360558774L766.792714450819,356.28375877512116L767.0210858529628,304.2546287956136L767.4017048565357,363.3031367459296L769.3555490748769,357.9036739169486L770.632737286866,323.11450323197386L772.7811201070334,305.61870763099483L773.7368967160054,367.53624357748174L774.6080913241836,234.2009741420536L774.6250077243424,368.9377343048151L774.6334659244217,311.77585310633407L775.6061589335526,105.55639726460271L777.1963005484797,266.17493174643363L778.2704919585633,268.21626755032645L781.0870725850032,262.8133856587124L783.4130776068379,376.4763294316817L787.8959236489193,322.5569346481573L788.6064124555888,393.56703498638467L791.2030798799642,259.9182731816061L793.6644161030694,320.15488067229444L794.4848615107711,304.2974801053912L794.7470657132325,360.0308006426339L794.8908551145822,232.2421479488106L797.1661109359405,350.3675936378038L797.1914855361788,319.68656092588805L798.172636745389,178.16796287516993L798.2318441459448,279.6487087804694L800.1095645635713,319.71280435085066L800.2448957648418,345.9480984434953L800.9046353710348,318.5351915841948L801.3275453750049,247.2010132043945L801.6912479784189,317.25473143556553L802.4271113853267,84.51189721763568L805.3028994123223,284.4982535314844L807.9841488374918,370.3273501472595L808.9399254464639,351.45106562309627L810.149448057818,303.0064236882709L811.7903388732213,397.53586999874926L812.3485800784617,278.41811467135864L812.357038278541,348.3118080557788L812.399329278938,325.2025685799118L812.4585366794938,223.6625047635999L816.5607637180022,323.584327648506L816.7722187199872,249.11229747300803L817.169754123719,345.56038097941024L819.7917961483328,195.9831158801092L821.6695165659593,72.82268720941926L824.714468594543,338.3978827421836L825.0866293980365,358.274500929059L825.1542949986716,346.3096784453026L827.1673466175686,162.5245080332786L827.2350122182038,308.8430249775789L828.5206586302724,377.44969205899486L831.1088678545685,351.954268285375L831.3541556568711,359.4346757698682L832.5044708676693,388.149747467757L834.5090642864868,366.24149612683703L836.2937445032401,297.42211955173315L837.587849115388,263.19543058706523L841.402497351197,364.0113489467929L842.1637353583428,307.8047178206845L845.2932693877204,305.42951478917786L849.395496426229,345.1300594518125L851.5100464460787,325.2053659947935L852.61807065648,372.51714673688997L856.4242606922095,348.64128136405844L859.3254233194434,343.88779531900366L860.1204941269068,340.49260961091295L861.5076389399283,352.600064932737L862.8017435520763,370.8086891755519L863.7067709605719,366.9653413558141L865.5168257775633,266.20518056088594L866.4133949859797,351.974380002971L869.8474242182157,167.10031584827658L869.9912136195654,182.09672015103456L870.2787924222649,356.71819518698294L870.4648728240118,232.55528887525614L870.7101606263143,291.0287479308349L871.2091944309988,262.1189627352453L872.3003022412414,329.50105792014284L872.9685000475139,328.1563349352052L873.2137878498164,249.41865678761928L877.7812158926918,362.18228112540095L879.9042241126209,380.4945792591316L880.9107499220694,311.29151180196925L881.5197403277862,340.8273951817961L883.4397517458098,285.73921785535833L884.1079495520823,353.02876523125565L884.6069833567668,306.1645849985763L885.7742149677238,258.6032197484432L887.178276180904,191.23043515145974L887.8126411868591,343.9650633088399L888.9967891979749,335.8393854583199L890.5700144127431,287.241359004998L891.7626206239383,336.93963840081256L892.3800692297343,292.82916697431676L895.2304826564919,204.68499761863183L896.1524264651464,403.09438546684714L896.1947174655432,314.88855642481315L896.8798316719747,301.0185072059306L897.7002770796764,269.9451123322412L899.0958800927772,189.96997369356237L901.5318417156441,368.4130883272L901.6079655163587,219.24316851331878L902.8174881277127,313.9247834204843L902.8513209280303,260.6453608687413L903.5364351344616,328.67772785839344L904.0016361388285,332.42490747739663L904.7036667454186,295.5031282638372L905.2449915505001,304.432822710737L906.6744273639187,385.4071735737127L907.5456219720967,365.7066353463967L909.3387603889294,345.54256511998744L910.6920724016331,279.0078605904927L910.9627348041738,320.3103208668782L911.0050258045709,359.5569990933281L913.0349938236267,99.08510068522183L913.6101514290258,380.9164131756681L914.1599344341868,331.5810771682067L914.5236370376008,374.52244816373445L914.5828444381566,389.7720962192479L914.6420518387125,271.3570439161276L915.2002930439528,310.8480085163687L915.6147448478432,331.70301196182197L919.1164396807144,402.77829877776105L919.8861358879398,215.45243116663875L920.8165378966736,400.9432634911639L921.3832373019934,204.97221300816943L922.245973710092,346.0134562275477L922.6858001142209,213.37251081708075L923.8868645254954,362.8260892063761L924.597353332165,335.8914908425795L925.2063437378816,381.51294070663647L925.3501331392315,383.6278252101252L926.2720769478859,261.3466784309065L926.568113950665,232.98378784467343L926.9149001539204,292.3006109736286L929.2493633758344,316.57417549546363L930.3996785866326,183.71605603018452L931.2624149947313,314.5333906975324L931.507702797034,358.55033239414774L931.6937831987807,333.6943333784373L932.6918508081498,368.44644891249914L932.8525566096583,285.5840602279344L934.7387352273643,309.814688669844L936.2442948414972,260.07022367176677L936.8025360467377,203.6246219665602L937.6398978545982,264.65792756419063L937.7329380554715,366.2572280534567L937.8851856569007,265.62180653120436L938.0628078585681,365.7442662278977L939.5514510725424,361.41428477771154L940.6933080832612,321.17300546980306L940.7525154838169,331.2557717255336L942.3680316989822,341.07216191975874L943.3999321086688,317.827608095262L943.6959691114478,311.89742056264157L944.1865447160529,361.70942617608034L944.423374318276,254.89986629591877L945.1338631249456,349.9311863200027L946.0304323333619,289.16678575995746L946.1150143341558,341.7427856241951L947.8235707501946,364.5756496931907L949.9212043698855,400.0514091271282L955.1822048192715,288.8983187014699L955.7235296243531,318.78040336543415L958.2186986477757,189.8652543041555L958.5908594512692,301.9330711393873L961.7288516807264,344.2479554208332L962.6761700896191,322.2370615591305L962.8622504913658,307.2865744198334L963.6234884985117,259.33831821455766L965.0867571122476,271.58254663797373L965.8733697196318,345.98343346682327L966.6853569272541,386.0778378971782L970.6691691646511,367.4479907893098L971.0244135679858,332.5022884940968L972.7414281841037,377.44546061577745L973.1558799879942,314.8850879129271L973.5618735918054,300.80837613757546L973.8156195941874,373.95428331142693L973.891743394902,366.6121959837256L976.057042615228,305.0452093235469L979.0597036434148,354.2745543893825L981.7409530685842,245.70582320688493L981.9354916704104,288.7886543867673L982.1469466723953,324.6786749373597L982.9504756799382,261.5272105892769L983.1619306819233,344.6760093469739L983.8724194885926,358.7998745171104L983.9992924897838,341.81650739617635L984.1684564913718,383.5090339761623L984.8958616982001,338.79780004339125L984.9043198982794,350.65749694744864L987.3994889217021,369.6982850078448L991.2479699578286,338.32725508060173L991.6793381618779,269.06987468324405L995.8746054012598,361.53194221094594L997.5831618172984,361.1874222014091L998.0145300213478,370.3175803877108L999.3593838339723,318.6740309581427L999.4439658347662,245.1474846275581L1001.177896851043,313.56358488434273L1002.6834564651759,390.6642914299202L1002.7934130662081,324.40882329978933L1003.2501558704957,375.46753994671366L1003.3854870717661,317.472739063499L1007.1832189074163,325.3648963490147L1007.7752929129742,325.5012279394197L1007.8091257132918,352.7614743585706L1008.3589087184527,395.2787782739773L1008.4011997188496,353.85317611239105L1009.0440229248841,372.40140016407344L1010.1097561348882,361.0271359800355L1010.3465857371115,316.2695257121689L1011.5222755481478,232.87881414482277L1014.5418529764933,303.296500070301L1014.5503111765727,125.06370370576191L1015.3538401841156,200.86586227239593L1016.6394865961843,289.6582548209272L1017.459932003886,217.75969092458124L1018.2296282111112,319.89284908087046L1018.2634610114288,319.90378442995313L1019.3122778212743,310.85498086103576L1022.9915948558128,274.2826736464879L1023.8204984635939,330.2581824963605L1024.6155692710574,357.1279387611712L1028.1257223040081,344.49797790796737L1033.4966793544263,377.28290326085727L1035.1714029701473,401.53720729866524L1035.6366039745142,329.9094593003223L1038.5208502015892,378.4034445254207L1038.79151260413,384.1978020243447L1039.3074628089735,274.38607909860195L1040.297072218263,372.7123723875678L1040.7707314227096,280.2197770103434L1042.8768232424798,369.0174606289412L1043.3251078466878,252.68931514840395L1043.942556452484,328.61840288320195L1045.9725244715398,283.9777365664914L1046.9283010805118,383.73828424496475L1047.7233718879754,303.8642763927638L1049.389637303617,272.5425403065408L1049.9563367089365,240.13732870293575L1050.920571517988,154.51723288687685L1051.3688561221963,306.55098146118945L1053.4072823413314,177.81438658816288L1054.8874673552261,273.46714243834793L1055.2342535584817,347.42858788451844L1055.4457085604665,348.371436790667L1056.5875655711855,189.76018170579894L1060.3260900062796,359.7046934156449L1061.1042444135846,385.1714313244148L1063.7770356386745,310.1514239541295L1067.8708044771035,365.5875191602001L1068.9534540872667,293.33649511712804L1069.063410688299,236.2520161278842L1069.4186550916336,209.59700384031171L1071.609328912198,288.06761363685087L1072.9118917244255,304.05518583007637L1074.7980703421313,299.6604329226943L1076.252880755788,332.0677143307446L1080.6511447970754,295.1733017466079L1082.1144134108115,351.23181116757036L1082.3935340134317,229.87549257388665L1085.9459780467791,349.6952568699615L1088.2888994687726,361.95323218569985L1090.0397468852082,313.8430296769869L1090.2596600872728,345.97879230122425L1090.2850346875107,404.2360556907815L1092.069714904264,387.51022734343127L1093.2538629153798,296.2146465004697L1094.8947537307833,343.5937064833049L1096.036610741502,304.37285489525703L1098.0158295600813,370.11831402664836L1098.963147968974,344.23743685831107L1102.2703042000192,302.6147361555912L1103.8435294147873,358.6646308102705L1104.0634426168517,344.5300563447791L1105.0530520261414,402.8119300094179L1106.2118254370191,249.29966775664457L1108.0387966541691,336.3812574364117L1109.941891672034,283.5381892211275L1111.4136184858494,212.77596915775436L1112.5385590964095,373.0299566826006L1114.07795151086,342.6217249029851L1118.510048352465,243.4651221434238L1118.7553361547675,194.2836580828094L1120.3201031694564,308.5869767457628L1120.7260967732675,330.9989746907441L1121.0475083762847,370.963016761944L1121.411210979699,406.877671429222L1122.5023187899415,210.89342196928848L1123.280473197246,253.69925256245853L1125.5726454187632,336.7429434009039L1125.7418094203513,257.7894687134097L1125.7756422206687,342.9420147785725L1125.9532644223361,335.65693890744217L1127.5687806375013,226.47379369276348L1128.6937212480614,364.328530583623L1130.6729400666406,302.0610104851474L1134.1746348995118,183.66163359521485L1135.7732347145184,339.73951161672187L1136.7713023238875,368.0160849998274L1137.0757975267456,358.2128023897255L1137.2872525287307,348.2532742686346L1140.095374955091,283.5994215246473L1141.5840181690653,286.22992398499673L1141.8462223715267,209.19825919281706L1144.7812177990781,409.05991885189206L1145.855409209162,274.8845416967757L1146.1091552115438,359.1603525069946L1147.893835428297,299.3465926425284L1148.5704914346488,365.6886393504095L1149.441686042827,322.17039690196424L1149.8984288471147,320.7680302164357L1154.0598632861788,303.9657533240125L1154.7026864922132,194.72427918338047L1155.3455096982475,384.43632049598716L1155.8107107026144,378.8734066934432L1156.5719487097604,355.22369041483574L1156.7495709114278,304.5578445505726L1157.0625243143654,362.33954034607564L1158.5088765279427,371.50975242727327L1160.6065101476336,359.9243893823579L1162.2981501635134,403.8928778752536L1164.302743582331,199.44553844386465L1171.111594646247,369.4627546839167" style="fill: none;" fill="none"></path></g></g></g></g></g></g><g transform="translate(46, 377)" clip-path="url(#clip_1)"><clipPath id="clip_1"><rect width="1226" height="23"></rect></clipPath><g><g><line x1="32.05424815367121" y1="0" x2="32.05424815367121" y2="5" style="visibility: inherit;" fill="rgb(0, 0, 0)" stroke="rgb(204, 204, 204)" stroke-width="1px"></line><line x1="201.21824974165" y1="0" x2="201.21824974165" y2="5" style="visibility: inherit;" fill="rgb(0, 0, 0)" stroke="rgb(204, 204, 204)" stroke-width="1px"></line><line x1="370.38225132962884" y1="0" x2="370.38225132962884" y2="5" style="visibility: inherit;" fill="rgb(0, 0, 0)" stroke="rgb(204, 204, 204)" stroke-width="1px"></line><line x1="539.5462529176076" y1="0" x2="539.5462529176076" y2="5" style="visibility: inherit;" fill="rgb(0, 0, 0)" stroke="rgb(204, 204, 204)" stroke-width="1px"></line><line x1="708.7102545055865" y1="0" x2="708.7102545055865" y2="5" style="visibility: inherit;" fill="rgb(0, 0, 0)" stroke="rgb(204, 204, 204)" stroke-width="1px"></line><line x1="877.8742560935651" y1="0" x2="877.8742560935651" y2="5" style="visibility: inherit;" fill="rgb(0, 0, 0)" stroke="rgb(204, 204, 204)" stroke-width="1px"></line><line x1="1047.038257681544" y1="0" x2="1047.038257681544" y2="5" style="visibility: inherit;" fill="rgb(0, 0, 0)" stroke="rgb(204, 204, 204)" stroke-width="1px"></line><line x1="1216.202259269523" y1="0" x2="1216.202259269523" y2="5" style="visibility: inherit;" fill="rgb(0, 0, 0)" stroke="rgb(204, 204, 204)" stroke-width="1px"></line></g><g transform="translate(0, 8)"><text x="32.05424815367121" y="0" dx="0em" dy="0.95em" style="text-anchor: middle; visibility: inherit; font-family: Roboto, sans-serif; font-size: 12px; font-weight: 200;" fill="rgb(50, 49, 63)" stroke="none" stroke-width="1px">0</text><text x="201.21824974165" y="0" dx="0em" dy="0.95em" style="text-anchor: middle; visibility: inherit; font-family: Roboto, sans-serif; font-size: 12px; font-weight: 200;" fill="rgb(50, 49, 63)" stroke="none" stroke-width="1px">20k</text><text x="370.38225132962884" y="0" dx="0em" dy="0.95em" style="text-anchor: middle; visibility: inherit; font-family: Roboto, sans-serif; font-size: 12px; font-weight: 200;" fill="rgb(50, 49, 63)" stroke="none" stroke-width="1px">40k</text><text x="539.5462529176076" y="0" dx="0em" dy="0.95em" style="text-anchor: middle; visibility: inherit; font-family: Roboto, sans-serif; font-size: 12px; font-weight: 200;" fill="rgb(50, 49, 63)" stroke="none" stroke-width="1px">60k</text><text x="708.7102545055865" y="0" dx="0em" dy="0.95em" style="text-anchor: middle; visibility: inherit; font-family: Roboto, sans-serif; font-size: 12px; font-weight: 200;" fill="rgb(50, 49, 63)" stroke="none" stroke-width="1px">80k</text><text x="877.8742560935651" y="0" dx="0em" dy="0.95em" style="text-anchor: middle; visibility: inherit; font-family: Roboto, sans-serif; font-size: 12px; font-weight: 200;" fill="rgb(50, 49, 63)" stroke="none" stroke-width="1px">100k</text><text x="1047.038257681544" y="0" dx="0em" dy="0.95em" style="text-anchor: middle; visibility: inherit; font-family: Roboto, sans-serif; font-size: 12px; font-weight: 200;" fill="rgb(50, 49, 63)" stroke="none" stroke-width="1px">120k</text><text x="1216.202259269523" y="0" dx="0em" dy="0.95em" style="text-anchor: middle; visibility: hidden; font-family: Roboto, sans-serif; font-size: 12px; font-weight: 200;" fill="rgb(50, 49, 63)" stroke="none" stroke-width="1px">140k</text></g><line x1="0" y1="0" x2="1226.5" y2="0" fill="rgb(0, 0, 0)" stroke="rgb(204, 204, 204)" stroke-width="1px"></line></g></g></g></g></svg>